<svg width="30" height="30" viewBox="0 0 30 30" fill="none" xmlns="http://www.w3.org/2000/svg">
<path d="M19.82 9.59V21.66C19.82 22.61 18.76 23.18 17.97 22.65L16.21 21.48C15.69 21.13 15 21.25 14.61 21.73L13.81 22.74C13.35 23.33 12.46 23.35 11.97 22.78L11.07 21.73C10.68 21.27 10 21.18 9.5 21.52L7.86 22.63C7.07 23.17 6 22.6 6 21.65V9.59C6.02 8.16 7.18 7 8.61 7H22.41" stroke="#019CB0" stroke-width="1.5" stroke-linecap="round" stroke-linejoin="round"/>
<path d="M22.4103 7.02148C23.8403 7.02148 25.0003 8.18148 25.0003 9.61148V12.7815C25.0003 13.8915 24.1003 14.7915 22.9903 14.7915H19.8203V9.61148C19.8203 8.18148 20.9803 7.02148 22.4103 7.02148Z" stroke="#019CB0" stroke-width="1.5" stroke-linecap="round" stroke-linejoin="round"/>
</svg>
