<svg width="30" height="30" viewBox="0 0 30 30" fill="none" xmlns="http://www.w3.org/2000/svg">
<path d="M22 26.5H8V24.5H22V26.5Z" stroke="#019CB0" stroke-width="1.5" stroke-linecap="round" stroke-linejoin="round"/>
<path d="M14.4091 12.23C14.7091 12.82 15.3491 14.36 13.5491 15.5C10.5791 17.37 9.64908 18.7999 9.59908 19.5699C9.57908 19.8499 9.56907 20.1899 9.55907 20.5099C9.53907 21.3199 10.1891 22 11.0091 22H18.7491C19.6391 22 20.3591 21.28 20.3591 20.39V12.6C20.3591 7.48998 17.8191 4 14.9591 4C14.9891 4.86 15.1091 5.80996 14.7191 6.01996C13.9191 6.46996 13.1091 6.88996 12.5991 7.64996L9.53906 12.28L11.4491 13.75C11.4491 13.75 12.1991 12.71 12.8091 12.41C13.7991 12.27 16.2191 12.26 15.6291 9.88995" stroke="#FFB66C" stroke-width="1.5" stroke-linecap="round" stroke-linejoin="round"/>
</svg>
