<svg width="30" height="30" viewBox="0 0 30 30" fill="none" xmlns="http://www.w3.org/2000/svg">
<path d="M11.89 6.87891H10.89C9.29995 6.87891 8 8.16891 8 9.76891V21.1789C8 22.7689 9.28995 24.0689 10.89 24.0689H19.89C21.48 24.0689 22.78 22.7789 22.78 21.1789V9.76891C22.78 8.17891 21.49 6.87891 19.89 6.87891H18.89" stroke="#FFB66C" stroke-width="1.5" stroke-linecap="round" stroke-linejoin="round"/>
<path d="M13.8904 5H16.8904C17.9904 5 18.8904 5.9 18.8904 7V8C18.8904 8.42 18.5504 8.75 18.1404 8.75H12.6504C12.2304 8.75 11.9004 8.41 11.9004 8V7C11.9004 5.9 12.8004 5 13.9004 5H13.8904Z" stroke="#FFB66C" stroke-width="1.5" stroke-linecap="round" stroke-linejoin="round"/>
<path d="M11.5293 12.3398H19.2293" stroke="#019CB0" stroke-width="1.5" stroke-linecap="round" stroke-linejoin="round"/>
<path d="M11.5293 15.4688H19.2293" stroke="#019CB0" stroke-width="1.5" stroke-linecap="round" stroke-linejoin="round"/>
<path d="M14.5898 18.5898H19.2299" stroke="#019CB0" stroke-width="1.5" stroke-linecap="round" stroke-linejoin="round"/>
</svg>
