<svg width="30" height="30" viewBox="0 0 30 30" fill="none" xmlns="http://www.w3.org/2000/svg">
<path d="M23.5164 10.34L22.8964 9.26001C22.3664 8.35001 21.1964 8.03 20.2864 8.56C19.3864 9.09 18.2164 8.80001 17.6864 7.89001C17.6864 7.89001 17.6864 7.89 17.6864 7.88C17.5264 7.6 17.4364 7.29 17.4264 6.97C17.4564 5.91 16.6264 5.03 15.5764 5C15.5564 5 15.5364 5 15.5164 5H14.2664C13.2164 5 12.3664 5.84999 12.3664 6.89999C12.3664 6.89999 12.3664 6.9 12.3664 6.91C12.3564 7.96 11.4964 8.80002 10.4464 8.80002C10.1264 8.80002 9.80635 8.71001 9.53635 8.54001C8.62635 8.01001 7.45635 8.33002 6.92635 9.24002L6.25636 10.34C5.72636 11.25 6.04636 12.42 6.95636 12.95C7.54636 13.29 7.91636 13.92 7.91636 14.61C7.91636 15.29 7.55636 15.93 6.95636 16.27C6.04636 16.79 5.72636 17.95 6.25636 18.86L6.88636 19.95C7.39636 20.88 8.55636 21.21 9.48636 20.7C9.48636 20.7 9.48635 20.7 9.49635 20.7C10.3964 20.17 11.5564 20.48 12.0864 21.38C12.0864 21.38 12.0864 21.39 12.0864 21.4C12.2464 21.68 12.3364 21.99 12.3464 22.32C12.3464 23.38 13.2064 24.23 14.2564 24.23H15.5064C16.5564 24.23 17.4164 23.38 17.4164 22.33C17.4164 21.28 18.2564 20.42 19.3064 20.42C19.3064 20.42 19.3264 20.42 19.3364 20.42C19.6564 20.42 19.9764 20.52 20.2464 20.68C21.1564 21.21 22.3264 20.89 22.8564 19.98L23.5164 18.88C24.0464 17.97 23.7364 16.81 22.8364 16.28C22.8364 16.28 22.8264 16.28 22.8164 16.27C21.9064 15.75 21.5864 14.59 22.1064 13.68C22.1064 13.68 22.1064 13.67 22.1164 13.66C22.2864 13.37 22.5264 13.13 22.8164 12.96C23.7264 12.43 24.0364 11.27 23.5164 10.36V10.34Z" stroke="#019CB0" stroke-width="1.5" stroke-linecap="round" stroke-linejoin="round"/>
<path d="M14.8861 17.2487C16.3441 17.2487 17.5261 16.0668 17.5261 14.6088C17.5261 13.1507 16.3441 11.9688 14.8861 11.9688C13.4281 11.9688 12.2461 13.1507 12.2461 14.6088C12.2461 16.0668 13.4281 17.2487 14.8861 17.2487Z" stroke="#FFB66C" stroke-width="1.5" stroke-linecap="round" stroke-linejoin="round"/>
</svg>
