<svg width="30" height="30" viewBox="0 0 30 30" fill="none" xmlns="http://www.w3.org/2000/svg">
<path d="M23.76 19.6105C23.76 21.2005 22.47 22.4904 20.88 22.4904C19.29 22.4904 18 21.2005 18 19.6105C18 18.0205 19.29 16.7305 20.88 16.7305C22.47 16.7305 23.76 18.0205 23.76 19.6105Z" stroke="#019CB0" stroke-width="1.5" stroke-linecap="round" stroke-linejoin="round"/>
<path d="M12.2598 10.8789H21.4998" stroke="#FFB66C" stroke-width="1.5" stroke-linecap="round" stroke-linejoin="round"/>
<path d="M6.25977 19.6094H15.4998" stroke="#FFB66C" stroke-width="1.5" stroke-linecap="round" stroke-linejoin="round"/>
<path d="M6 10.88C6 12.47 7.29 13.76 8.88 13.76C10.47 13.76 11.76 12.47 11.76 10.88C11.76 9.29 10.47 8 8.88 8C7.29 8 6 9.29 6 10.88Z" stroke="#019CB0" stroke-width="1.5" stroke-linecap="round" stroke-linejoin="round"/>
</svg>
