<svg width="30" height="30" viewBox="0 0 30 30" fill="none" xmlns="http://www.w3.org/2000/svg">
<path d="M19.58 6H10.91C7.89 6 6 8.14004 6 11.17V19.34C6 22.37 7.88 24.51 10.91 24.51H19.58C22.61 24.51 24.5 22.37 24.5 19.34V11.17C24.5 8.14004 22.61 6 19.58 6Z" stroke="#FFB66C" stroke-width="1.5" stroke-linecap="round" stroke-linejoin="round"/>
<path d="M19.2004 8.91016H18.3604C17.0004 8.91016 16.1504 9.87016 16.1504 11.2302V19.6401C16.1504 21.0001 17.0004 21.9601 18.3604 21.9601H19.2004C20.5604 21.9601 21.4104 21.0001 21.4104 19.6401V11.2302C21.4104 9.87016 20.5604 8.91016 19.2004 8.91016Z" stroke="#019CB0" stroke-width="1.5" stroke-linecap="round" stroke-linejoin="round"/>
</svg>
