<svg width="30" height="30" viewBox="0 0 30 30" fill="none" xmlns="http://www.w3.org/2000/svg">
<path d="M22.5692 12.7188C22.5692 12.7188 22.0291 19.4588 21.7091 22.2888C21.6791 23.5288 20.6491 24.4987 19.4091 24.4688C19.3891 24.4688 19.3692 24.4688 19.3492 24.4688C16.7392 24.5188 14.1291 24.5188 11.5191 24.4688C10.2991 24.5087 9.26916 23.5488 9.22916 22.3288V22.3088C8.90916 19.4488 8.36914 12.7288 8.36914 12.7288" stroke="#FFB66C" stroke-width="1.5" stroke-linecap="round" stroke-linejoin="round"/>
<path d="M23.96 9.49023H7" stroke="#019CB0" stroke-width="1.5" stroke-linecap="round" stroke-linejoin="round"/>
<path d="M20.6898 9.49C19.9098 9.49 19.2298 8.94 19.0698 8.17L18.8297 6.95C18.6797 6.39 18.1698 6 17.5898 6H13.3597C12.7797 6 12.2698 6.39 12.1198 6.95L11.8798 8.17C11.7298 8.94 11.0498 9.49 10.2598 9.49" stroke="#019CB0" stroke-width="1.5" stroke-linecap="round" stroke-linejoin="round"/>
</svg>
