<svg width="30" height="30" viewBox="0 0 30 30" fill="none" xmlns="http://www.w3.org/2000/svg">
<path d="M8.03876 10.3075C8.03876 9.0575 9.04877 8.0475 10.2988 8.0475H11.3288C11.9288 8.0475 12.4988 7.8075 12.9188 7.3875L13.6388 6.6675C14.5188 5.7775 15.9487 5.7775 16.8387 6.6675L17.5587 7.39751C17.9787 7.81751 18.5587 8.0575 19.1487 8.0575H20.1787C21.4287 8.0575 22.4387 9.06751 22.4387 10.3175V11.3475C22.4387 11.9475 22.6788 12.5175 23.0988 12.9375L23.8188 13.6575C24.7088 14.5375 24.7088 15.9675 23.8288 16.8575V16.8675L23.1088 17.5875C22.6888 18.0075 22.4488 18.5875 22.4488 19.1775V20.2075C22.4488 21.4575 21.4387 22.4675 20.1887 22.4675H19.1588C18.5588 22.4675 17.9888 22.7075 17.5688 23.1275L16.8488 23.8475C15.9688 24.7375 14.5387 24.7375 13.6487 23.8575L12.9287 23.1275C12.5087 22.7075 11.9287 22.4675 11.3387 22.4675H10.3087C9.05874 22.4675 8.04877 21.4575 8.04877 20.2075V19.1775C8.04877 18.5775 7.80876 18.0075 7.38876 17.5875L6.66876 16.8675C5.77876 15.9875 5.77875 14.5575 6.65875 13.6675L7.37875 12.9375C7.79875 12.5175 8.03876 11.9375 8.03876 11.3475V10.3175" stroke="#019CB0" stroke-width="1.5" stroke-linecap="round" stroke-linejoin="round"/>
<path d="M12.668 17.8177L17.808 12.6777" stroke="#FFB66C" stroke-width="1.5" stroke-linecap="round" stroke-linejoin="round"/>
<path d="M17.8086 18.5681C17.6086 18.5681 17.4186 18.4881 17.2786 18.3481C17.2086 18.2781 17.1586 18.1881 17.1186 18.0981C17.0786 18.0081 17.0586 17.9181 17.0586 17.8181C17.0586 17.7181 17.0786 17.6181 17.1186 17.5281C17.1586 17.4381 17.2086 17.3581 17.2786 17.2881C17.5786 17.0081 18.0386 17.0081 18.3386 17.2881C18.4086 17.3581 18.4686 17.4381 18.5086 17.5281C18.5386 17.6181 18.5586 17.7181 18.5586 17.8181C18.5586 17.9181 18.5386 18.0081 18.5086 18.0981C18.4686 18.1881 18.4086 18.2781 18.3386 18.3481C18.1986 18.4881 18.0086 18.5681 17.8086 18.5681Z" stroke="#FFB66C" stroke-width="1.5" stroke-linecap="round" stroke-linejoin="round"/>
<path d="M12.668 13.4275C12.568 13.4275 12.478 13.4075 12.388 13.3675C12.298 13.3275 12.208 13.2775 12.138 13.2075C12.068 13.1375 12.018 13.0475 11.978 12.9575C11.938 12.8675 11.918 12.7775 11.918 12.6775C11.918 12.5775 11.938 12.4775 11.978 12.3875C12.018 12.2975 12.068 12.2175 12.138 12.1475C12.438 11.8675 12.898 11.8675 13.198 12.1475C13.338 12.2875 13.418 12.4775 13.418 12.6775C13.418 12.7775 13.408 12.8675 13.368 12.9575C13.328 13.0475 13.268 13.1375 13.198 13.2075C13.128 13.2775 13.0479 13.3275 12.9579 13.3675C12.8679 13.4075 12.768 13.4275 12.668 13.4275Z" stroke="#FFB66C" stroke-width="1.5" stroke-linecap="round" stroke-linejoin="round"/>
</svg>
