<svg width="30" height="30" viewBox="0 0 30 30" fill="none" xmlns="http://www.w3.org/2000/svg">
<path d="M18.3411 6.89C17.7911 6.32 17.0411 6 16.2511 6H10.8311C8.75109 6 7.05109 7.65 7.00109 9.73V20.44C6.95109 22.55 8.63109 24.3 10.7411 24.35C10.7711 24.35 10.8011 24.35 10.8311 24.35H18.8211C20.9111 24.26 22.5611 22.53 22.5511 20.44V12.44C22.5511 11.69 22.2611 10.97 21.7411 10.44L18.3411 6.89Z" stroke="#019CB0" stroke-width="1.5" stroke-linecap="round" stroke-linejoin="round"/>
<path d="M17.2207 6.17969V9.50969C17.2207 10.5997 18.1007 11.4797 19.1907 11.4797H19.6507" stroke="#019CB0" stroke-width="1.5" stroke-linecap="round" stroke-linejoin="round"/>
<path d="M14.7713 17.2596L11.8613 20.1696M14.7713 17.2596L11.8613 14.3496M14.7713 17.2596L17.6813 14.3496M14.7713 17.2596L17.6813 20.1696" stroke="#FFB66C" stroke-width="1.5" stroke-linecap="round" stroke-linejoin="round"/>
</svg>
