<svg width="30" height="30" viewBox="0 0 30 30" fill="none" xmlns="http://www.w3.org/2000/svg">
<path d="M7 19.8499C7.81 18.1799 7.96997 16.5998 8.02997 15.3398" stroke="#019CB0" stroke-width="1.5" stroke-linecap="round" stroke-linejoin="round"/>
<path d="M8.78906 11.23C9.92906 8.74004 12.3291 7 15.2391 7C19.1991 7 22.3491 10.21 22.4091 14.17" stroke="#019CB0" stroke-width="1.5" stroke-linecap="round" stroke-linejoin="round"/>
<path d="M22.2896 17.3086C22.1696 18.8386 21.9496 20.4986 21.5996 21.9086" stroke="#019CB0" stroke-width="1.5" stroke-linecap="round" stroke-linejoin="round"/>
<path d="M9.38086 21.4903C10.2209 20.1303 10.6408 18.6403 10.8608 17.3203" stroke="#019CB0" stroke-width="1.5" stroke-linecap="round" stroke-linejoin="round"/>
<path d="M11.1309 14.0101C11.2909 11.7501 12.9708 9.91016 15.2308 9.91016C17.4908 9.91016 19.2009 11.7501 19.3309 14.0101C19.3709 14.6701 19.3509 15.5601 19.2709 16.5601" stroke="#019CB0" stroke-width="1.5" stroke-linecap="round" stroke-linejoin="round"/>
<path d="M18.8906 19.4414C18.6506 20.7514 18.3206 22.0614 17.8906 23.1614" stroke="#019CB0" stroke-width="1.5" stroke-linecap="round" stroke-linejoin="round"/>
<path d="M11.9297 22.4395C12.2397 21.8595 12.7097 20.9395 13.1397 19.5195" stroke="#019CB0" stroke-width="1.5" stroke-linecap="round" stroke-linejoin="round"/>
<path d="M13.6797 16.9797C13.7897 16.0197 13.8397 14.9097 13.9097 14.1997C13.9797 13.4997 14.4797 12.9297 15.1797 12.9297C15.8797 12.9297 16.3897 13.4997 16.4497 14.1997C16.5797 15.9097 16.1297 20.0797 14.7097 23.7597" stroke="#019CB0" stroke-width="1.5" stroke-linecap="round" stroke-linejoin="round"/>
</svg>
