<svg width="30" height="30" viewBox="0 0 30 30" fill="none" xmlns="http://www.w3.org/2000/svg">
<path d="M19.2598 7.96875L22.1598 20.5188L26.0198 19.5587" stroke="#019CB0" stroke-width="1.5" stroke-linecap="round" stroke-linejoin="round"/>
<path d="M21.8196 19.0801L19.0996 20.5201" stroke="#019CB0" stroke-width="1.5" stroke-linecap="round" stroke-linejoin="round"/>
<path d="M13.4706 21.4902H8.64062" stroke="#FFB66C" stroke-width="1.5" stroke-linecap="round" stroke-linejoin="round"/>
<path d="M5.69 21.4902C4.76 21.4902 4 20.7302 4 19.8002V18.3502C4 17.4202 4.76 16.6602 5.69 16.6602H17.57C18.5 16.6602 19.26 17.4202 19.26 18.3502V19.8002C19.26 20.7302 18.5 21.4902 17.57 21.4902H17.33" stroke="#FFB66C" stroke-width="1.5" stroke-linecap="round" stroke-linejoin="round"/>
<path d="M8.11072 7H9.36072C11.8307 7 14.0407 8.53001 14.9207 10.84L17.1207 16.66H6.2207V8.89001C6.2207 7.85001 7.06072 7 8.11072 7Z" stroke="#FFB66C" stroke-width="1.5" stroke-linecap="round" stroke-linejoin="round"/>
<path d="M7.19019 22.8297C7.991 22.8297 8.6402 22.1805 8.6402 21.3797C8.6402 20.5789 7.991 19.9297 7.19019 19.9297C6.38937 19.9297 5.74023 20.5789 5.74023 21.3797C5.74023 22.1805 6.38937 22.8297 7.19019 22.8297Z" stroke="#019CB0" stroke-width="1.5" stroke-linecap="round" stroke-linejoin="round"/>
<path d="M15.4007 22.8288C16.4666 22.8288 17.3307 21.9647 17.3307 20.8987C17.3307 19.8328 16.4666 18.9688 15.4007 18.9688C14.3348 18.9688 13.4707 19.8328 13.4707 20.8987C13.4707 21.9647 14.3348 22.8288 15.4007 22.8288Z" stroke="#019CB0" stroke-width="1.5" stroke-linecap="round" stroke-linejoin="round"/>
</svg>
