<svg width="30" height="30" viewBox="0 0 30 30" fill="none" xmlns="http://www.w3.org/2000/svg">
<path d="M11.8516 15.3086V19.0486" stroke="#019CB0" stroke-width="1.5" stroke-linecap="round" stroke-linejoin="round"/>
<path d="M13.7614 17.1797H9.94141" stroke="#019CB0" stroke-width="1.5" stroke-linecap="round" stroke-linejoin="round"/>
<path d="M18.3717 15.4199H18.2617" stroke="#019CB0" stroke-width="1.5" stroke-linecap="round" stroke-linejoin="round"/>
<path d="M20.1803 19H20.0703" stroke="#019CB0" stroke-width="1.5" stroke-linecap="round" stroke-linejoin="round"/>
<path d="M11.082 5C11.082 5.75 11.702 6.35001 12.452 6.34001H13.512C14.672 6.34001 15.612 7.26 15.632 8.41V9.09001" stroke="#FFB66C" stroke-width="1.5" stroke-linecap="round" stroke-linejoin="round"/>
<path d="M19.4311 24.9586C16.4211 25.0086 13.4711 25.0086 10.5711 24.9586C7.62114 25.0886 5.13113 22.7986 5.00113 19.8586C5.00113 19.7386 5.00113 19.6286 5.00113 19.5086V14.8586C4.94113 11.9086 7.27117 9.46859 10.2212 9.40859C10.3412 9.40859 10.4511 9.40859 10.5711 9.40859C13.4911 9.35859 16.4411 9.35859 19.4311 9.40859C22.3811 9.27859 24.8711 11.5686 25.0011 14.5086C25.0011 14.6286 25.0011 14.7386 25.0011 14.8586V19.5086C25.0611 22.4586 22.7312 24.8986 19.7812 24.9586C19.6612 24.9586 19.5511 24.9586 19.4311 24.9586Z" stroke="#019CB0" stroke-width="1.5" stroke-linecap="round" stroke-linejoin="round"/>
</svg>
