<svg width="30" height="30" viewBox="0 0 30 30" fill="none" xmlns="http://www.w3.org/2000/svg">
<path d="M19.2898 5H22.5598C23.9198 5 25.0099 6.11 25.0099 7.47V10.76C25.0099 12.12 23.9198 13.22 22.5598 13.23H19.2898C17.9298 13.23 16.8398 12.12 16.8398 10.76V7.47C16.8398 6.11 17.9298 5.01 19.2898 5Z" stroke="#FFB66C" stroke-width="1.5" stroke-linecap="round" stroke-linejoin="round"/>
<path d="M7.45 5H10.72C12.08 5 13.17 6.11 13.17 7.47V10.76C13.17 12.12 12.08 13.22 10.72 13.23H7.45C6.09 13.23 5 12.12 5 10.76V7.47C5 6.11 6.09 5.01 7.45 5Z" stroke="#019CB0" stroke-width="1.5" stroke-linecap="round" stroke-linejoin="round"/>
<path d="M7.45 16.7598H10.72C12.08 16.7598 13.18 17.8698 13.17 19.2298V22.5198C13.17 23.8798 12.08 24.9797 10.72 24.9897H7.45C6.09 24.9897 5 23.8798 5 22.5198V19.2298C5 17.8698 6.09 16.7698 7.45 16.7598Z" stroke="#019CB0" stroke-width="1.5" stroke-linecap="round" stroke-linejoin="round"/>
<path d="M19.2898 16.7598H22.5598C23.9198 16.7598 25.0099 17.8698 25.0099 19.2298V22.5198C25.0099 23.8798 23.9198 24.9797 22.5598 24.9897H19.2898C17.9298 24.9897 16.8398 23.8798 16.8398 22.5198V19.2298C16.8398 17.8698 17.9298 16.7698 19.2898 16.7598Z" stroke="#019CB0" stroke-width="1.5" stroke-linecap="round" stroke-linejoin="round"/>
</svg>
