<svg width="30" height="30" viewBox="0 0 30 30" fill="none" xmlns="http://www.w3.org/2000/svg">
<path d="M8 14V12C8 8.69 11.69 6 15 6C18.31 6 22 8.69 22 12V14" stroke="#019CB0" stroke-width="1.5" stroke-linecap="round" stroke-linejoin="round"/>
<path d="M7 20H8V14H7C5.34 14 4 15.34 4 17C4 18.66 5.34 20 7 20Z" stroke="#019CB0" stroke-width="1.5" stroke-linecap="round" stroke-linejoin="round"/>
<path d="M23 20H22V14H23C24.66 14 26 15.34 26 17C26 18.66 24.66 20 23 20Z" stroke="#019CB0" stroke-width="1.5" stroke-linecap="round" stroke-linejoin="round"/>
<path d="M22 20C22 22.2 20 24 18 24" stroke="#019CB0" stroke-width="1.5" stroke-linecap="round" stroke-linejoin="round"/>
<path d="M17 25H15C14.45 25 14 24.55 14 24C14 23.45 14.45 23 15 23H17C17.55 23 18 23.45 18 24C18 24.55 17.55 25 17 25Z" stroke="#FFB66C" stroke-width="1.5" stroke-linecap="round" stroke-linejoin="round"/>
</svg>
