<svg width="30" height="30" viewBox="0 0 30 30" fill="none" xmlns="http://www.w3.org/2000/svg">
<path d="M14.7518 23.8509C12.4718 22.5209 10.3518 20.9509 8.41177 19.1609C7.06177 17.8909 6.03175 16.3309 5.39175 14.6009C4.26175 11.2509 5.58176 7.42091 9.28176 6.29091C11.2218 5.69091 13.3318 6.03092 15.0018 7.20092C16.6618 6.03092 18.7718 5.69091 20.7118 6.29091C24.4118 7.42091 25.7418 11.2509 24.6118 14.6009C23.9718 16.3409 22.9418 17.9009 21.5918 19.1709C19.6518 20.9609 17.5318 22.5309 15.2518 23.8609L15.0018 24.0109L14.7418 23.8609L14.7518 23.8509Z" stroke="#019CB0" stroke-width="1.5" stroke-linecap="round" stroke-linejoin="round"/>
<path d="M18.9414 10.0508C20.0414 10.3708 20.8414 11.3308 20.9614 12.4708" stroke="#FFB66C" stroke-width="1.5" stroke-linecap="round" stroke-linejoin="round"/>
</svg>
