<svg width="30" height="30" viewBox="0 0 30 30" fill="none" xmlns="http://www.w3.org/2000/svg">
<path d="M24.46 11.15V19.3C24.46 22.32 22.57 24.45 19.55 24.45H10.9C7.88002 24.45 6 22.32 6 19.3V11.15C6 8.13 7.89002 6 10.9 6H19.55C22.57 6 24.46 8.13 24.46 11.15Z" stroke="#019CB0" stroke-width="1.5" stroke-linecap="round" stroke-linejoin="round"/>
<path d="M8.5293 19.6887L10.0593 18.0787C10.5893 17.5187 11.4792 17.4887 12.0392 18.0187C12.0592 18.0387 12.0793 18.0487 12.0893 18.0687L12.9693 18.9687C13.5193 19.5387 14.4293 19.5387 14.9993 18.9887C15.0393 18.9487 15.0692 18.9187 15.0992 18.8787L17.3293 16.1687C17.9193 15.4487 18.9893 15.3487 19.6993 15.9387C19.7493 15.9787 19.7993 16.0187 19.8393 16.0687L21.9193 18.2087" stroke="#FFB66C" stroke-width="1.5" stroke-linecap="round" stroke-linejoin="round"/>
<path d="M13.5703 12.3906C13.5703 13.3606 12.7803 14.1406 11.8203 14.1406C10.8603 14.1406 10.0703 13.3506 10.0703 12.3906C10.0703 11.4206 10.8603 10.6406 11.8203 10.6406C12.7903 10.6406 13.5703 11.4306 13.5703 12.3906Z" stroke="#FFB66C" stroke-width="1.5" stroke-linecap="round" stroke-linejoin="round"/>
</svg>
