<svg width="30" height="30" viewBox="0 0 30 30" fill="none" xmlns="http://www.w3.org/2000/svg">
<path d="M19.58 6H10.91C7.89003 6 6 8.14001 6 11.17V19.34C6 22.37 7.88003 24.51 10.91 24.51H19.58C22.61 24.51 24.5 22.37 24.5 19.34V11.17C24.5 8.14001 22.61 6 19.58 6Z" stroke="#FFB66C" stroke-width="1.5" stroke-linecap="round" stroke-linejoin="round"/>
<path d="M14.5504 15.2508C14.5504 16.6108 13.4504 17.7008 12.1004 17.7008C10.7404 17.7008 9.65039 16.6008 9.65039 15.2508C9.65039 13.8908 10.7504 12.8008 12.1004 12.8008C13.4504 12.8008 14.5504 13.9008 14.5504 15.2508Z" stroke="#019CB0" stroke-width="1.5" stroke-linecap="round" stroke-linejoin="round"/>
<path d="M14.5605 15.25H21.1906V17.7" stroke="#019CB0" stroke-width="1.5" stroke-linecap="round" stroke-linejoin="round"/>
<path d="M18.4395 17.7V15.25" stroke="#019CB0" stroke-width="1.5" stroke-linecap="round" stroke-linejoin="round"/>
</svg>
