<svg width="30" height="30" viewBox="0 0 30 30" fill="none" xmlns="http://www.w3.org/2000/svg">
<path d="M6.21094 10.7889V19.4589C6.21094 22.4789 8.35092 24.3789 11.3809 24.3789H19.5509C22.5809 24.3789 24.7209 22.4889 24.7209 19.4689V10.7989C24.7209 7.7689 22.5809 5.87891 19.5509 5.87891H11.3809C8.35092 5.87891 6.21094 7.7689 6.21094 10.7989V10.7889Z" stroke="#FFB66C" stroke-width="1.5" stroke-linecap="round" stroke-linejoin="round"/>
<path d="M22.5 15.1289H26.93" stroke="#019CB0" stroke-width="1.5" stroke-linecap="round" stroke-linejoin="round"/>
<path d="M4 15.1289H8.42999" stroke="#019CB0" stroke-width="1.5" stroke-linecap="round" stroke-linejoin="round"/>
<path d="M15.4609 8.44V4" stroke="#019CB0" stroke-width="1.5" stroke-linecap="round" stroke-linejoin="round"/>
<path d="M15.4609 26.9398V22.5098" stroke="#019CB0" stroke-width="1.5" stroke-linecap="round" stroke-linejoin="round"/>
<path d="M15.4603 18.2702C17.1945 18.2702 18.6003 16.8644 18.6003 15.1302C18.6003 13.3961 17.1945 11.9902 15.4603 11.9902C13.7262 11.9902 12.3203 13.3961 12.3203 15.1302C12.3203 16.8644 13.7262 18.2702 15.4603 18.2702Z" stroke="#019CB0" stroke-width="1.5" stroke-linecap="round" stroke-linejoin="round"/>
</svg>
