<svg width="30" height="30" viewBox="0 0 30 30" fill="none" xmlns="http://www.w3.org/2000/svg">
<path d="M13.3291 12.79L9.86914 10.19V5H20.2592V10.19L18.7691 11.3" stroke="#FFB66C" stroke-width="1.5" stroke-linecap="round" stroke-linejoin="round"/>
<path d="M15.06 24.9012C18.4068 24.9012 21.12 22.1881 21.12 18.8412C21.12 15.4944 18.4068 12.7812 15.06 12.7812C11.7132 12.7812 9 15.4944 9 18.8412C9 22.1881 11.7132 24.9012 15.06 24.9012Z" stroke="#019CB0" stroke-width="1.5" stroke-linecap="round" stroke-linejoin="round"/>
<path d="M15.0596 22.2989C16.9705 22.2989 18.5196 20.7498 18.5196 18.8389C18.5196 16.928 16.9705 15.3789 15.0596 15.3789C13.1487 15.3789 11.5996 16.928 11.5996 18.8389C11.5996 20.7498 13.1487 22.2989 15.0596 22.2989Z" stroke="#019CB0" stroke-width="1.5" stroke-linecap="round" stroke-linejoin="round"/>
</svg>
