<svg width="30" height="30" viewBox="0 0 30 30" fill="none" xmlns="http://www.w3.org/2000/svg">
<path d="M18.9856 19.4766H11.7656" stroke="#FFB66C" stroke-width="1.5" stroke-linecap="round" stroke-linejoin="round"/>
<path d="M18.9856 15.2969H11.7656" stroke="#FFB66C" stroke-width="1.5" stroke-linecap="round" stroke-linejoin="round"/>
<path d="M14.5256 11.1172H11.7656" stroke="#FFB66C" stroke-width="1.5" stroke-linecap="round" stroke-linejoin="round"/>
<path d="M19.1857 6.00662H11.4956C9.15565 5.87662 7.14565 7.67662 7.01565 10.0166C7.00565 10.2166 7.01565 10.4166 7.01565 10.6166V19.8166C6.81565 22.1566 8.55565 24.2166 10.8956 24.4166C11.1056 24.4366 11.3157 24.4366 11.5157 24.4166H19.2057C21.5457 24.5466 23.5556 22.7466 23.6856 20.4066C23.6956 20.2066 23.6856 20.0166 23.6856 19.8166V10.6166C23.8856 8.27662 22.1557 6.21662 19.8057 6.01662C19.5957 5.99662 19.3856 5.99662 19.1756 6.01662L19.1857 6.00662Z" stroke="#019CB0" stroke-width="1.5" stroke-linecap="round" stroke-linejoin="round"/>
</svg>
