<svg width="30" height="30" viewBox="0 0 30 30" fill="none" xmlns="http://www.w3.org/2000/svg">
<path d="M23.0099 19.9246C17.8299 18.4746 12.65 22.1846 7.47998 20.4246C7.18998 20.3246 7 20.0346 7 19.7246V11.6847C7 11.1947 7.47 10.8446 7.94 10.9846C13.12 12.4346 18.3 8.72464 23.47 10.4846C23.76 10.5846 23.95 10.8747 23.95 11.1847V19.2246C23.95 19.7146 23.4799 20.0646 23.0099 19.9246Z" stroke="#019CB0" stroke-width="1.5" stroke-linecap="round" stroke-linejoin="round"/>
<path d="M15.9307 18.0333C17.1513 18.0333 18.1407 17.0439 18.1407 15.8233C18.1407 14.6028 17.1513 13.6133 15.9307 13.6133C14.7102 13.6133 13.7207 14.6028 13.7207 15.8233C13.7207 17.0439 14.7102 18.0333 15.9307 18.0333Z" stroke="#FFB66C" stroke-width="1.5" stroke-linecap="round" stroke-linejoin="round"/>
</svg>
