<svg width="30" height="30" viewBox="0 0 30 30" fill="none" xmlns="http://www.w3.org/2000/svg">
<path d="M9.32001 20.8197C11.1536 20.8197 12.64 19.3333 12.64 17.4997C12.64 15.6661 11.1536 14.1797 9.32001 14.1797C7.48642 14.1797 6 15.6661 6 17.4997C6 19.3333 7.48642 20.8197 9.32001 20.8197Z" stroke="#019CB0" stroke-width="1.5" stroke-linecap="round" stroke-linejoin="round"/>
<path d="M20.3903 25.2377C22.2239 25.2377 23.7103 23.7512 23.7103 21.9177C23.7103 20.0841 22.2239 18.5977 20.3903 18.5977C18.5567 18.5977 17.0703 20.0841 17.0703 21.9177C17.0703 23.7512 18.5567 25.2377 20.3903 25.2377Z" stroke="#019CB0" stroke-width="1.5" stroke-linecap="round" stroke-linejoin="round"/>
<path d="M12.6406 7.53906L23.7106 11.9591" stroke="#FFB66C" stroke-width="1.5" stroke-linecap="round" stroke-linejoin="round"/>
<path d="M23.7109 15.3398V21.9198" stroke="#019CB0" stroke-width="1.5" stroke-linecap="round" stroke-linejoin="round"/>
<path d="M12.6406 17.4991V5.87909C12.6406 4.54909 13.9806 3.63909 15.2206 4.13909L22.5306 7.05909C23.2406 7.34909 23.7106 8.03909 23.7106 8.79909V11.9591" stroke="#019CB0" stroke-width="1.5" stroke-linecap="round" stroke-linejoin="round"/>
</svg>
