<svg width="30" height="30" viewBox="0 0 30 30" fill="none" xmlns="http://www.w3.org/2000/svg">
<path d="M6.5 24.5813C5.12 24.5813 4 23.4613 4 22.0813V17.1913C4 15.8613 5.08 14.7812 6.41 14.7812H9.00998V22.0713C9.00998 23.4513 7.88998 24.5713 6.50998 24.5713L6.5 24.5813Z" stroke="#FFB66C" stroke-width="1.5" stroke-linecap="round" stroke-linejoin="round"/>
<path d="M9.00024 14.79V8.68C9.00024 6.65 10.6502 5 12.6802 5H23.1202C25.1502 5 26.8002 6.65 26.8002 8.68V20.83C26.8002 22.9 25.1202 24.58 23.0502 24.58H6.49023" stroke="#FFB66C" stroke-width="1.5" stroke-linecap="round" stroke-linejoin="round"/>
<path d="M16.5305 8.87891H14.1005C13.3438 8.87891 12.7305 9.49228 12.7305 10.2489V13.4189C12.7305 14.1755 13.3438 14.7889 14.1005 14.7889H16.5305C17.2871 14.7889 17.9005 14.1755 17.9005 13.4189V10.2489C17.9005 9.49228 17.2871 8.87891 16.5305 8.87891Z" stroke="#019CB0" stroke-width="1.5" stroke-linecap="round" stroke-linejoin="round"/>
<path d="M20.8594 11.5391H22.9994" stroke="#019CB0" stroke-width="1.5" stroke-linecap="round" stroke-linejoin="round"/>
<path d="M20.8594 14.6992H22.9994" stroke="#019CB0" stroke-width="1.5" stroke-linecap="round" stroke-linejoin="round"/>
<path d="M11.6699 17.8711H22.9999" stroke="#019CB0" stroke-width="1.5" stroke-linecap="round" stroke-linejoin="round"/>
<path d="M11.6699 21.0312H22.9999" stroke="#019CB0" stroke-width="1.5" stroke-linecap="round" stroke-linejoin="round"/>
</svg>
