<svg width="30" height="30" viewBox="0 0 30 30" fill="none" xmlns="http://www.w3.org/2000/svg">
<path d="M14.74 6H11C7.93 6 6 8.17999 6 11.26V19.57C6 22.65 7.92 24.83 11 24.83H19.82C22.91 24.83 24.82 22.65 24.82 19.57V15.54" stroke="#FFB66C" stroke-width="1.5" stroke-linecap="round" stroke-linejoin="round"/>
<path d="M20.5296 14.86L16.6296 18.76C16.2196 19.17 15.6696 19.4 15.0996 19.4H11.3496L11.4396 15.62C11.4496 15.06 11.6796 14.53 12.0696 14.14L18.9596 7.25C20.2096 6 22.2396 6 23.4896 7.25L23.5396 7.3C24.7996 8.55 24.7996 10.59 23.5396 11.84L22.9696 12.39" stroke="#019CB0" stroke-width="1.5" stroke-linecap="round" stroke-linejoin="round"/>
<path d="M18.4102 7.80859L22.9802 12.3786" stroke="#019CB0" stroke-width="1.5" stroke-linecap="round" stroke-linejoin="round"/>
</svg>
