<svg width="30" height="30" viewBox="0 0 30 30" fill="none" xmlns="http://www.w3.org/2000/svg">
<path d="M5.48161 7.37138C5.80161 6.84138 7.5416 4.94139 8.7816 5.00139C9.1516 5.06139 9.4916 5.24141 9.7516 5.52141C10.7116 6.53141 11.5416 7.65141 12.2216 8.86141C12.4616 10.0314 11.0716 10.7014 11.4916 11.8814C12.4916 14.4614 14.5316 16.4914 17.1116 17.5014C18.2916 17.9314 18.9616 16.5314 20.1316 16.7814C21.3416 17.4614 22.4616 18.2914 23.4716 19.2514C23.7516 19.5014 23.9316 19.8414 23.9916 20.2214C24.0416 21.5314 22.0116 23.3014 21.6216 23.5214C20.6916 24.1914 19.4816 24.1714 18.0016 23.4914C13.8716 21.7714 7.27159 15.3014 5.52159 11.0214C4.85159 9.55141 4.81159 8.3214 5.49159 7.3914L5.48161 7.37138Z" stroke="#019CB0" stroke-width="1.5" stroke-linecap="round" stroke-linejoin="round"/>
<path d="M17.0508 5.24219C20.7508 5.65219 23.6808 8.57219 24.0908 12.2722" stroke="#FFB66C" stroke-width="1.5" stroke-linecap="round" stroke-linejoin="round"/>
<path d="M17.0508 8.79102C18.8208 9.13102 20.2108 10.521 20.5508 12.291" stroke="#FFB66C" stroke-width="1.5" stroke-linecap="round" stroke-linejoin="round"/>
</svg>
