<svg width="30" height="30" viewBox="0 0 30 30" fill="none" xmlns="http://www.w3.org/2000/svg">
<path d="M8.89022 15.7609C7.63022 14.3309 6.59021 12.731 5.79021 11.001C5.11021 9.52096 5.0702 8.30094 5.7502 7.38094C6.0702 6.86094 7.8102 4.95096 9.0602 5.00096C9.4302 5.06096 9.7702 5.24094 10.0302 5.51094C10.5402 6.05094 11.0102 6.63094 11.4502 7.23094C11.8702 7.72094 12.2102 8.27094 12.4902 8.85094C12.7402 10.0209 11.3402 10.701 11.7702 11.871C11.8702 12.101 11.9702 12.331 12.0702 12.551" stroke="#FFB66C" stroke-width="1.5" stroke-linecap="round" stroke-linejoin="round"/>
<path d="M11.0996 18.1595C13.1596 20.3395 15.5896 22.1395 18.2696 23.4795C19.7496 24.1695 20.9596 24.1795 21.8896 23.5095C22.2896 23.2795 24.3096 21.5195 24.2596 20.1995C24.1996 19.8295 24.0196 19.4895 23.7496 19.2395C22.7496 18.2795 21.6196 17.4495 20.4096 16.7695C19.2396 16.5195 18.5596 17.9195 17.3896 17.4895C16.1196 16.9795 14.9596 16.2295 13.9896 15.2695" stroke="#019CB0" stroke-width="1.5" stroke-linecap="round" stroke-linejoin="round"/>
<path d="M5 24.08L23.33 5.75" stroke="#019CB0" stroke-width="1.5" stroke-linecap="round" stroke-linejoin="round"/>
</svg>
