<svg width="30" height="30" viewBox="0 0 30 30" fill="none" xmlns="http://www.w3.org/2000/svg">
<path d="M18.2005 21.1562H10.9805" stroke="#019CB0" stroke-width="1.5" stroke-linecap="round" stroke-linejoin="round"/>
<path d="M18.2005 18.2246H10.9805" stroke="#019CB0" stroke-width="1.5" stroke-linecap="round" stroke-linejoin="round"/>
<path d="M22.8993 12.195V10.615C23.0993 8.27501 21.3693 6.215 19.0193 6.015C18.8093 5.995 18.5993 5.995 18.3893 6.015H10.6993C8.35928 5.885 6.34929 7.68501 6.21929 10.025C6.20929 10.225 6.21929 10.425 6.21929 10.625V12.205" stroke="#FFB66C" stroke-width="1.5" stroke-linecap="round" stroke-linejoin="round"/>
<path d="M6.24026 15.4453V19.8153C6.04026 22.1553 7.78025 24.2153 10.1203 24.4153C10.3303 24.4353 10.5403 24.4353 10.7403 24.4153H18.4302C20.7702 24.5453 22.7803 22.7453 22.9103 20.4053C22.9203 20.2053 22.9103 20.0153 22.9103 19.8153V15.4453" stroke="#019CB0" stroke-width="1.5" stroke-linecap="round" stroke-linejoin="round"/>
<path d="M25.13 15.2949H4" stroke="#019CB0" stroke-width="1.5" stroke-linecap="round" stroke-linejoin="round"/>
</svg>
