<svg width="30" height="30" viewBox="0 0 30 30" fill="none" xmlns="http://www.w3.org/2000/svg">
<path d="M21.62 8.37C22.05 8.52 22.35 8.92999 22.35 9.38999V16.16C22.35 18.03 21.68 19.84 20.45 21.26C19.82 21.95 19.08 22.53 18.25 22.96C16.03 24.16 13.35 24.16 11.12 22.96C10.29 22.53 9.54 21.96 8.91 21.26C7.68 19.84 7 18.03 7 16.16V9.38999C7 8.92999 7.29 8.52 7.73 8.37L14.32 6.06C14.55 5.98 14.81 5.98 15.04 6.06L21.63 8.37H21.62Z" stroke="#019CB0" stroke-width="1.5" stroke-linecap="round" stroke-linejoin="round"/>
<path d="M14.6796 15.2206L11.5996 18.3006M14.6796 15.2206L11.5996 12.1406M14.6796 15.2206L17.7596 12.1406M14.6796 15.2206L17.7596 18.3006" stroke="#FFB66C" stroke-width="1.5" stroke-linecap="round" stroke-linejoin="round"/>
</svg>
