<svg width="30" height="30" viewBox="0 0 30 30" fill="none" xmlns="http://www.w3.org/2000/svg">
<path d="M10.6702 22.5703C11.0902 22.5703 11.4402 22.9103 11.4402 23.3303C11.4402 23.7503 11.1002 24.1003 10.6802 24.1003C10.2602 24.1003 9.91016 23.7603 9.91016 23.3403C9.91016 22.9203 10.2502 22.5803 10.6702 22.5803V22.5703Z" stroke="#FFB66C" stroke-width="1.5" stroke-linecap="round" stroke-linejoin="round"/>
<path d="M21.9299 22.5703C22.3499 22.5703 22.6899 22.9103 22.6899 23.3303C22.6899 23.7503 22.3499 24.0903 21.9299 24.0903C21.5099 24.0903 21.1699 23.7503 21.1699 23.3303C21.1699 22.9103 21.5099 22.5703 21.9299 22.5703Z" stroke="#FFB66C" stroke-width="1.5" stroke-linecap="round" stroke-linejoin="round"/>
<path d="M6 6L8.08 6.36L9.03999 17.83C9.11999 18.77 9.9 19.49 10.84 19.48H21.75C22.65 19.48 23.41 18.82 23.54 17.93L24.49 11.37C24.6 10.64 24.09 9.96001 23.35 9.85001C23.29 9.85001 23.22 9.84 23.16 9.84H11.58" stroke="#019CB0" stroke-width="1.5" stroke-linecap="round" stroke-linejoin="round"/>
<path d="M17.3809 13.5508H20.1509" stroke="#FFB66C" stroke-width="1.5" stroke-linecap="round" stroke-linejoin="round"/>
</svg>
