<svg width="30" height="30" viewBox="0 0 30 30" fill="none" xmlns="http://www.w3.org/2000/svg">
<path d="M7.53906 21.3711H22.149V23.6811C22.149 24.2311 21.699 24.6811 21.149 24.6811H8.53906C7.98906 24.6811 7.53906 24.2311 7.53906 23.6811V21.3711Z" stroke="#FFB66C" stroke-width="1.5" stroke-linecap="round" stroke-linejoin="round"/>
<path d="M22.15 17.53H19.82C16 17.53 17.54 13.69 17.54 8.69C17.54 6.77 16.34 6 14.85 6C13.36 6 12.16 6.77 12.16 8.69C12.16 13.69 13.7 17.53 9.84998 17.53H7.53998C6.68998 17.53 6 18.22 6 19.07V21.38H23.68V19.07C23.68 18.22 22.99 17.53 22.14 17.53H22.15Z" stroke="#019CB0" stroke-width="1.5" stroke-linecap="round" stroke-linejoin="round"/>
</svg>
