<svg width="30" height="30" viewBox="0 0 30 30" fill="none" xmlns="http://www.w3.org/2000/svg">
<path d="M15.76 6.47143L18.2 11.3814C18.32 11.6314 18.56 11.8014 18.83 11.8414L24.29 12.6314C24.51 12.6614 24.71 12.7814 24.85 12.9514C25.1 13.2814 25.07 13.7514 24.76 14.0414L20.81 17.8814C20.61 18.0714 20.52 18.3414 20.57 18.6114L21.52 24.0215C21.59 24.4715 21.28 24.8915 20.83 24.9615C20.64 24.9915 20.45 24.9614 20.29 24.8814L15.42 22.3314C15.18 22.2014 14.88 22.2014 14.64 22.3314L9.74 24.9014C9.33 25.1014 8.84003 24.9515 8.61003 24.5515C8.52003 24.3915 8.49003 24.2015 8.52003 24.0215L9.47001 18.6114C9.52001 18.3414 9.43002 18.0714 9.23002 17.8814L5.24 14.0414C4.92 13.7214 4.92 13.1914 5.24 12.8614C5.37 12.7414 5.54001 12.6614 5.72001 12.6214L11.18 11.8314C11.45 11.7914 11.69 11.6114 11.81 11.3714L14.25 6.46144C14.35 6.26144 14.52 6.11144 14.73 6.04144C14.94 5.97144 15.17 5.99144 15.37 6.09144C15.53 6.17144 15.67 6.30143 15.75 6.47143H15.76Z" stroke="#019CB0" stroke-width="1.5" stroke-linecap="round" stroke-linejoin="round"/>
</svg>
