<svg width="30" height="30" viewBox="0 0 30 30" fill="none" xmlns="http://www.w3.org/2000/svg">
<path d="M11.2109 20.5V25.22" stroke="#FFB66C" stroke-width="1.5" stroke-linecap="round" stroke-linejoin="round"/>
<path d="M12.65 10.2307C12.22 10.0107 11.73 9.89062 11.21 9.89062C9.44001 9.89062 8 11.3306 8 13.1006V17.2906C8 19.0606 9.44001 20.5007 11.21 20.5007C12.37 20.5007 13.39 19.8806 13.95 18.9606" stroke="#FFB66C" stroke-width="1.5" stroke-linecap="round" stroke-linejoin="round"/>
<path d="M17.9512 20.5V25.22" stroke="#019CB0" stroke-width="1.5" stroke-linecap="round" stroke-linejoin="round"/>
<path d="M17.9509 4C15.1909 4 12.9609 6.22999 12.9609 8.98999V15.5099C12.9609 18.2699 15.1909 20.5 17.9509 20.5C20.7109 20.5 22.9409 18.2699 22.9409 15.5099V8.98999C22.9409 6.22999 20.7109 4 17.9509 4Z" stroke="#019CB0" stroke-width="1.5" stroke-linecap="round" stroke-linejoin="round"/>
</svg>
