<svg width="30" height="30" viewBox="0 0 30 30" fill="none" xmlns="http://www.w3.org/2000/svg">
<path d="M9.86111 13.5605L7.12109 18.6105" stroke="#019CB0" stroke-width="1.5" stroke-linecap="round" stroke-linejoin="round"/>
<path d="M6 22.6094C7.10457 22.6094 8 21.7139 8 20.6094C8 19.5048 7.10457 18.6094 6 18.6094C4.89543 18.6094 4 19.5048 4 20.6094C4 21.7139 4.89543 22.6094 6 22.6094Z" stroke="#FFB66C" stroke-width="1.5" stroke-linecap="round" stroke-linejoin="round"/>
<path d="M17.5309 17.2109L7.96094 20.2409" stroke="#FFB66C" stroke-width="1.5" stroke-linecap="round" stroke-linejoin="round"/>
<path d="M11.1113 14C12.2159 14 13.1113 13.1046 13.1113 12C13.1113 10.8954 12.2159 10 11.1113 10C10.0068 10 9.11133 10.8954 9.11133 12C9.11133 13.1046 10.0068 14 11.1113 14Z" stroke="#019CB0" stroke-width="1.5" stroke-linecap="round" stroke-linejoin="round"/>
<path d="M19.1113 18C20.2159 18 21.1113 17.1046 21.1113 16C21.1113 14.8954 20.2159 14 19.1113 14C18.0068 14 17.1113 14.8954 17.1113 16C17.1113 17.1046 18.0068 18 19.1113 18Z" stroke="#019CB0" stroke-width="1.5" stroke-linecap="round" stroke-linejoin="round"/>
<path d="M25.1103 7L20.0703 14.24" stroke="#019CB0" stroke-width="1.5" stroke-linecap="round" stroke-linejoin="round"/>
<path d="M17.3204 15.1106L12.9004 12.8906" stroke="#019CB0" stroke-width="1.5" stroke-linecap="round" stroke-linejoin="round"/>
<path d="M21.1113 8L25.1113 7L26.1113 11" stroke="#019CB0" stroke-width="1.5" stroke-linecap="round" stroke-linejoin="round"/>
</svg>
