<svg width="30" height="30" viewBox="0 0 30 30" fill="none" xmlns="http://www.w3.org/2000/svg">
<path d="M17.8725 19.88C17.8325 20.47 17.7425 21.06 17.6225 21.64C17.4525 22.41 16.7725 22.97 15.9825 22.99C15.5625 22.96 15.1625 22.8 14.8425 22.52L11.0725 19.46H8.9725C7.9625 19.46 7.1425 18.64 7.1425 17.64C6.9525 15.86 6.9525 14.07 7.1425 12.29C7.2025 11.32 8.0025 10.55 8.9725 10.53H11.0725L14.7625 7.52C15.1125 7.23 15.5325 7.04 15.9825 7C16.7725 7.02 17.4525 7.58 17.6225 8.35C17.7425 8.93 17.8325 9.52 17.8725 10.11C18.0425 13.37 18.0425 16.63 17.8725 19.89V19.88Z" stroke="#019CB0" stroke-width="1.5" stroke-linecap="round" stroke-linejoin="round"/>
<path d="M21.7227 9.55859C22.7627 11.1286 23.2927 12.9786 23.2627 14.8586C23.2927 16.7386 22.7627 18.5886 21.7227 20.1586" stroke="#FFB66C" stroke-width="1.5" stroke-linecap="round" stroke-linejoin="round"/>
</svg>
