<svg width="30" height="30" viewBox="0 0 30 30" fill="none" xmlns="http://www.w3.org/2000/svg">
<path d="M15.8725 20.1398C15.8325 20.7298 15.7425 21.3198 15.6225 21.8998C15.4525 22.6698 14.7725 23.2298 13.9825 23.2498C13.5625 23.2198 13.1625 23.0598 12.8425 22.7798L9.0725 19.7198H6.9725C5.9625 19.7198 5.1425 18.8998 5.1425 17.8998C4.9525 16.1198 4.9525 14.3298 5.1425 12.5498C5.2025 11.5798 6.0025 10.8098 6.9725 10.7898H9.0725L12.7625 7.77977C13.1125 7.48977 13.5325 7.29977 13.9825 7.25977C14.7725 7.27977 15.4525 7.83977 15.6225 8.60977C15.7425 9.18977 15.8325 9.77977 15.8725 10.3698C16.0425 13.6298 16.0425 16.8898 15.8725 20.1498V20.1398Z" stroke="#019CB0" stroke-width="1.5" stroke-linecap="round" stroke-linejoin="round"/>
<path d="M19.8418 10.0586C20.8218 11.5386 21.3318 13.2886 21.2918 15.0686C21.3218 16.8486 20.8218 18.5886 19.8418 20.0786" stroke="#FFB66C" stroke-width="1.5" stroke-linecap="round" stroke-linejoin="round"/>
<path d="M23.2832 7C24.8632 9.39 25.6732 12.2 25.6232 15.07C25.6732 17.93 24.8632 20.75 23.2832 23.14" stroke="#FFB66C" stroke-width="1.5" stroke-linecap="round" stroke-linejoin="round"/>
</svg>
