<svg width="30" height="30" viewBox="0 0 30 30" fill="none" xmlns="http://www.w3.org/2000/svg">
<path d="M14.5117 19.5217C14.5117 19.1017 14.8417 18.7717 15.2617 18.7617C15.6717 18.7617 16.0117 19.0917 16.0117 19.5017C16.0117 19.9317 15.6717 20.2617 15.2617 20.2617C14.8517 20.2617 14.5117 19.9217 14.5117 19.5117V19.5217Z" stroke="#FFB66C" stroke-width="1.5" stroke-linecap="round" stroke-linejoin="round"/>
<path d="M8.05239 23.6718H22.5324C23.6824 23.6118 24.5624 22.6418 24.5024 21.4918C24.4924 21.2618 24.4424 21.0318 24.3524 20.8118L17.0724 8.07175C16.5124 7.07175 15.2524 6.70175 14.2424 7.26175C13.9024 7.45175 13.6224 7.73175 13.4324 8.07175L6.15243 20.8118C5.72243 21.8718 6.23239 23.0918 7.30239 23.5218C7.52239 23.6118 7.74238 23.6618 7.98238 23.6718" stroke="#019CB0" stroke-width="1.5" stroke-linecap="round" stroke-linejoin="round"/>
<path d="M15.252 16.0008V11.5508" stroke="#FFB66C" stroke-width="1.5" stroke-linecap="round" stroke-linejoin="round"/>
</svg>
