<svg width="16" height="4" viewBox="0 0 16 4" fill="none" xmlns="http://www.w3.org/2000/svg">
<path d="M15.2 2.00001C15.2 3.10417 14.3041 4 13.2 4C12.0958 4 11.2 3.10417 11.2 2.00001C11.2 0.895838 12.0958 0 13.2 0C14.3041 0 15.2 0.895838 15.2 2.00001Z" fill="#CACCCC"/>
<path d="M0 1.99999C0 3.10416 0.895837 4 2.00001 4C3.10417 4 4.00001 3.10416 4.00001 1.99999C4.00001 0.895827 3.10417 0 2.00001 0C0.895837 0 0 0.895827 0 1.99999Z" fill="#CACCCC"/>
<path d="M5.6001 1.99999C5.6001 3.10416 6.49594 4 7.6001 4C8.70427 4 9.60011 3.10416 9.60011 1.99999C9.60011 0.895827 8.70427 0 7.6001 0C6.49594 0 5.6001 0.895827 5.6001 1.99999Z" fill="#CACCCC"/>
</svg>
