<svg width="107" height="106" viewBox="0 0 107 106" fill="none" xmlns="http://www.w3.org/2000/svg">
<path d="M71.9949 6.35202C78.1209 8.71547 83.7214 12.2624 88.4766 16.7902C93.2318 21.3181 97.0486 26.7382 99.7092 32.7411C102.37 38.7441 103.822 45.2122 103.983 51.7764C104.143 58.3405 103.01 64.872 100.646 70.998C98.2827 77.124 94.7358 82.7245 90.208 87.4797C85.6801 92.2349 80.26 96.0518 74.2571 98.7123C68.2541 101.373 61.786 102.825 55.2218 102.986C48.6577 103.146 42.1262 102.013 36.0002 99.6493C29.8742 97.2859 24.2737 93.739 19.5185 89.2111C14.7633 84.6833 10.9464 79.2631 8.28593 73.2602C5.62541 67.2573 4.17331 60.7891 4.01253 54.225C3.85176 47.6608 4.98546 41.1293 7.3489 35.0033C9.71234 28.8773 13.2592 23.2769 17.7871 18.5216C22.315 13.7664 27.7351 9.94957 33.738 7.28905C39.7409 4.62853 46.2091 3.17643 52.7733 3.01566C59.3374 2.85488 65.8689 3.98858 71.9949 6.35202L71.9949 6.35202Z" stroke="#E8EAEB" stroke-width="6"/>
<path d="M71.9949 6.35202C79.3565 9.19219 85.9415 13.7343 91.2113 19.607C96.4812 25.4798 100.286 32.5163 102.316 40.1414" stroke="#018c9e" stroke-width="6" stroke-linecap="round"/>
</svg>
