<svg width="80" height="80" viewBox="0 0 80 80" fill="none" xmlns="http://www.w3.org/2000/svg">
<rect width="80" height="80" rx="20" fill="#E8EAEB"/>
<mask id="mask0_1939_8079" style="mask-type:alpha" maskUnits="userSpaceOnUse" x="5" y="11" width="70" height="70">
<path d="M6.05996 80.0001C5.87514 80.0001 5.71034 79.8569 5.71527 79.6721C5.78537 76.0396 5.82043 72.4044 5.93907 68.7746C5.993 67.1265 6.33815 65.5084 6.88283 63.9477C7.58391 61.9442 9.01034 60.5967 10.7846 59.5553C12.6236 58.4784 14.6325 57.8525 16.6332 57.1965C20.1198 56.0513 23.5038 54.6382 26.869 53.1759C27.4919 52.9053 28.0123 52.4953 28.4437 51.976C29.1394 51.1342 29.9942 50.5001 30.946 49.9944C31.1968 49.8632 31.3235 49.6992 31.3316 49.4259C31.3721 48.256 31.4206 47.0862 31.4422 45.9191C31.4449 45.7196 31.3667 45.5036 31.2723 45.3232C30.4472 43.7844 29.8486 42.1663 29.5304 40.4444C29.5151 40.3513 29.3904 40.3252 29.3027 40.36C28.9209 40.511 28.6259 40.2976 28.379 40.0016C28.1714 39.7529 27.9826 39.4741 27.8532 39.1789C27.6267 38.665 27.4137 38.1348 27.26 37.5936C26.9795 36.5932 26.7099 35.5983 26.2704 34.6499C25.8524 33.7561 25.874 32.7776 26.0034 31.8155C26.1322 30.8521 27.1067 29.9447 26.8777 29.0001C26.1287 25.9108 25.8791 22.7938 26.7204 19.6105C26.7354 19.5537 26.661 19.5153 26.6253 19.5621C26.5984 19.5974 26.5429 19.5872 26.5349 19.5434C26.4 18.8066 26.8291 17.7345 27.5998 16.7586C27.6878 16.6473 27.5582 16.4733 27.4297 16.5333C27.4112 16.542 27.3927 16.5506 27.3742 16.5593C27.3545 16.5684 27.3312 16.5634 27.3171 16.5469C27.3014 16.5285 27.3018 16.5013 27.3178 16.4832C27.4015 16.3881 27.4808 16.2867 27.5755 16.2031C28.5435 15.3667 29.6275 14.7845 30.9164 14.6397C31.035 14.626 31.213 14.5085 31.2426 14.4073C31.426 13.724 31.8251 13.1938 32.3671 12.792C32.9245 12.3774 33.5197 12.0165 34.1015 11.6351C34.1356 11.6128 34.1812 11.622 34.2036 11.656C34.2224 11.6845 34.22 11.7221 34.1975 11.7477C34.1878 11.7587 34.1782 11.7698 34.1685 11.7808C34.076 11.8863 34.1951 12.0535 34.3273 12.0067C36.4008 11.2721 38.5517 11.3963 40.78 11.5319C39.6498 11.6071 38.6028 11.6743 37.5572 11.744C37.5241 11.7462 37.4986 11.7736 37.4981 11.8068C37.4976 11.842 37.5246 11.8723 37.5597 11.8747C37.6516 11.881 37.7436 11.89 37.8355 11.89C40.3567 11.9201 42.832 12.2809 45.2561 12.9669C48.4245 13.8634 50.7003 15.8614 52.2319 18.7942C54.1814 22.5251 54.4753 26.4063 53.3536 30.4324C53.3266 30.5336 53.297 30.6347 53.2673 30.7358C53.2585 30.7715 53.3053 30.8005 53.3419 30.8045C53.3642 30.8069 53.3872 30.8083 53.4102 30.8042C54.3243 30.6812 55.0146 31.411 54.6749 32.2829C54.0682 33.8299 53.8821 35.4671 53.4857 37.0551C53.3024 37.7904 53.0004 38.4956 52.7334 39.2089C52.6552 39.4139 52.5285 39.6053 52.4045 39.7884C52.032 40.3314 51.7987 40.4452 51.3385 40.1907C51.2079 40.1185 51.0285 40.1778 50.9996 40.3241C50.641 42.0843 50.0424 43.7598 49.3062 45.397C48.7777 46.5723 48.8748 47.8351 49.1229 49.0788C49.1417 49.1744 49.2442 49.2837 49.3359 49.3275C50.1961 49.7539 50.8836 50.4017 51.4661 51.1451C52.2427 52.1373 53.2134 52.7495 54.3864 53.2032C58.4742 54.7776 62.527 56.4504 66.5905 58.0876C67.4588 58.4374 68.3163 58.8146 69.1926 59.1481C70.1472 59.5116 70.9049 60.1293 71.5277 60.9274C72.8382 62.6084 73.5636 64.5627 73.9815 66.629C74.1864 67.6403 74.2889 68.6899 74.2862 69.7231C74.2781 73.0549 74.1999 76.3868 74.1487 79.7159C74.1487 79.8781 73.9983 80.0001 73.836 80.0001H6.05996Z" fill="#8B8C8C"/>
</mask>
<g mask="url(#mask0_1939_8079)">
<rect x="0.000976562" y="0.000244141" width="80" height="80" rx="20" fill="#019CB0"/>
</g>
</svg>
