<svg width="30" height="30" viewBox="0 0 30 30" fill="none" xmlns="http://www.w3.org/2000/svg">
<path d="M9.09961 23.3205V21.9905C9.09961 21.2805 9.36962 20.5905 9.85962 20.0705L10.4196 19.4805" stroke="#FFB66C" stroke-width="1.5" stroke-linecap="round" stroke-linejoin="round"/>
<path d="M7 19.49L7.39001 18.12C7.59001 17.43 8.04 16.84 8.66 16.48L9.47 16" stroke="#FFB66C" stroke-width="1.5" stroke-linecap="round" stroke-linejoin="round"/>
<path d="M7 10.7812V10.9213C7 12.2613 7.95001 13.4013 9.26001 13.6613L9.63 13.7313" stroke="#FFB66C" stroke-width="1.5" stroke-linecap="round" stroke-linejoin="round"/>
<path d="M20.9391 23.3205V21.9905C20.9391 21.2805 20.6691 20.5905 20.1791 20.0705L19.6191 19.4805" stroke="#FFB66C" stroke-width="1.5" stroke-linecap="round" stroke-linejoin="round"/>
<path d="M23.0305 19.49L22.6406 18.12C22.4406 17.43 21.9905 16.84 21.3705 16.48L20.5605 16" stroke="#FFB66C" stroke-width="1.5" stroke-linecap="round" stroke-linejoin="round"/>
<path d="M23.0304 10.7812V10.9213C23.0304 12.2613 22.0804 13.4013 20.7704 13.6613L20.4004 13.7313" stroke="#FFB66C" stroke-width="1.5" stroke-linecap="round" stroke-linejoin="round"/>
<path d="M15.0195 23.3213V10.7812" stroke="#019CB0" stroke-width="1.5" stroke-linecap="round" stroke-linejoin="round"/>
<path d="M20.5995 15.3113C20.5995 18.9713 18.0995 23.3213 15.0195 23.3213C11.9395 23.3213 9.43945 18.9613 9.43945 15.3113C9.43945 11.6613 11.9395 10.7812 15.0195 10.7812C18.0995 10.7812 20.5995 11.6513 20.5995 15.3113Z" stroke="#019CB0" stroke-width="1.5" stroke-linecap="round" stroke-linejoin="round"/>
<path d="M12.9509 7.74982C13.0309 7.58982 13.0809 7.39978 13.0809 7.20978C13.0809 6.54978 12.5409 6.00977 11.8809 6.00977" stroke="#019CB0" stroke-width="1.5" stroke-linecap="round" stroke-linejoin="round"/>
<path d="M18.1297 6C17.4697 6 16.9297 6.53995 16.9297 7.19995C16.9297 7.39995 16.9797 7.57999 17.0597 7.73999" stroke="#019CB0" stroke-width="1.5" stroke-linecap="round" stroke-linejoin="round"/>
<path d="M15.0195 10.7791C16.3995 10.7791 17.6595 10.9591 18.6295 11.4791C18.7695 11.1491 18.8495 10.7991 18.8495 10.4291C18.8495 8.69908 17.1295 7.28906 15.0195 7.28906C12.9095 7.28906 11.1895 8.68908 11.1895 10.4291C11.1895 10.7991 11.2695 11.1491 11.4095 11.4791C12.3795 10.9591 13.6395 10.7791 15.0195 10.7791Z" stroke="#019CB0" stroke-width="1.5" stroke-linecap="round" stroke-linejoin="round"/>
</svg>
