<svg width="30" height="30" viewBox="0 0 30 30" fill="none" xmlns="http://www.w3.org/2000/svg">
<path d="M20.89 10.3602C20.52 10.3602 20.18 10.1502 20.02 9.81018C19.73 9.20018 19.37 8.43018 19.15 8.00018C18.88 7.39018 18.27 6.99018 17.6 7.00018H12.9C12.23 7.00018 11.62 7.39018 11.35 8.00018C11.13 8.42018 10.77 9.20018 10.48 9.81018C10.32 10.1502 9.97999 10.3602 9.60999 10.3602C7.61999 10.3602 6 11.9802 6 13.9702V19.9102C6 21.9102 7.61999 23.5202 9.60999 23.5202H20.88C22.87 23.5202 24.49 21.9002 24.49 19.9102V13.9702C24.49 11.9802 22.87 10.3602 20.88 10.3602H20.89Z" stroke="#019CB0" stroke-width="1.5" stroke-linecap="round" stroke-linejoin="round"/>
<path d="M12.4297 17.0405C12.4297 18.5505 13.6497 19.7705 15.1597 19.7605C16.6697 19.7605 17.8897 18.5405 17.8797 17.0305C17.8797 15.5305 16.6597 14.3105 15.1597 14.3105C13.6497 14.3105 12.4297 15.5305 12.4297 17.0405Z" stroke="#FFB66C" stroke-width="1.5" stroke-linecap="round" stroke-linejoin="round"/>
<path d="M20.3599 14.7706C20.2699 14.7706 20.1799 14.7406 20.0999 14.7006C19.9999 14.6506 19.8999 14.5906 19.8299 14.5106C19.6799 14.3506 19.5898 14.1306 19.5898 13.9106C19.5898 13.7906 19.6099 13.6806 19.6599 13.5706C19.7099 13.4606 19.7799 13.3606 19.8599 13.2806C19.9399 13.2106 20.0299 13.1506 20.1199 13.1106C20.4399 12.9906 20.7999 13.0606 21.0399 13.2906C21.1099 13.3506 21.1599 13.4306 21.1999 13.5106L21.2198 13.5606C21.2698 13.6706 21.2899 13.7906 21.2899 13.9006C21.2899 14.1306 21.1999 14.3406 21.0399 14.5006C20.8999 14.6406 20.7199 14.7306 20.5199 14.7506H20.3499L20.3599 14.7706Z" stroke="#FFB66C" stroke-width="1.5" stroke-linecap="round" stroke-linejoin="round"/>
</svg>
