<svg width="30" height="30" viewBox="0 0 30 30" fill="none" xmlns="http://www.w3.org/2000/svg">
<path d="M20.6571 12.0891L22.3771 10.6891C22.8071 10.3391 23.4371 10.3991 23.7871 10.8191C23.9371 10.9991 24.0171 11.2291 24.0171 11.4591V18.3291C24.0171 18.8791 23.5771 19.3291 23.0271 19.3391C22.7971 19.3391 22.5671 19.2591 22.3871 19.1091L18.2871 15.7591" stroke="#FFB66C" stroke-width="1.5" stroke-linecap="round" stroke-linejoin="round"/>
<path d="M18.2675 18.38C18.3475 20.19 16.9375 21.71 15.1375 21.79C15.0075 21.79 14.8675 21.79 14.7375 21.79H8.51751C6.71751 21.93 5.1475 20.59 5.0075 18.79C4.9975 18.66 4.9975 18.52 5.0075 18.39V11.43C4.9275 9.61997 6.3275 8.08998 8.1375 8.00998C8.2675 8.00998 8.40753 8.00998 8.53753 8.00998H14.7475C16.5575 7.86998 18.1275 9.21998 18.2675 11.03C18.2775 11.16 18.2775 11.29 18.2675 11.42V18.38Z" stroke="#019CB0" stroke-width="1.5" stroke-linecap="round" stroke-linejoin="round"/>
</svg>
