<svg width="30" height="30" viewBox="0 0 30 30" fill="none" xmlns="http://www.w3.org/2000/svg">
<path d="M9.4707 17.4997L12.4607 13.6097L15.5307 16.3897L19.1507 11.4297" stroke="#019CB0" stroke-width="1.5" stroke-linecap="round" stroke-linejoin="round"/>
<path d="M22.2208 8.84C23.2812 8.84 24.1408 7.98038 24.1408 6.92C24.1408 5.85961 23.2812 5 22.2208 5C21.1604 5 20.3008 5.85961 20.3008 6.92C20.3008 7.98038 21.1604 8.84 22.2208 8.84Z" stroke="#019CB0" stroke-width="1.5" stroke-linecap="round" stroke-linejoin="round"/>
<path d="M17.15 5.83984H9.88C6.87 5.83984 5 7.96984 5 10.9798V19.0598C5 22.0698 6.83 24.1998 9.88 24.1998H18.48C21.49 24.1998 23.36 22.0798 23.36 19.0598V12.0198" stroke="#FFB66C" stroke-width="1.5" stroke-linecap="round" stroke-linejoin="round"/>
</svg>
