<svg width="30" height="30" viewBox="0 0 30 30" fill="none" xmlns="http://www.w3.org/2000/svg">
<path d="M24.782 11.9709C24.142 8.04092 20.802 5.11092 16.822 5.00092C16.432 4.98092 16.092 5.29092 16.082 5.69092V5.75092L16.532 12.4609C16.562 12.9109 16.952 13.2609 17.402 13.2309L24.132 12.7809C24.522 12.7509 24.812 12.4009 24.782 12.0109V11.9709Z" stroke="#FFB66C" stroke-width="1.5" stroke-linecap="round" stroke-linejoin="round"/>
<path d="M12.1625 8.9908C12.5925 8.8908 13.0325 9.1108 13.2025 9.5108C13.2525 9.6008 13.2725 9.7108 13.2825 9.8108C13.3725 11.1108 13.5625 13.9608 13.6725 15.4908C13.7125 16.0608 14.2125 16.5008 14.7825 16.4608L20.4325 16.1108C20.9325 16.0808 21.3725 16.4608 21.4025 16.9708C21.4025 16.9908 21.4025 17.0108 21.4025 17.0308C21.1125 21.2708 17.4425 24.4808 13.2025 24.1908C10.5925 24.0108 8.24251 22.5208 6.98251 20.2208C6.49251 19.3608 6.1825 18.4108 6.0625 17.4208C6.0125 17.1208 5.9925 16.8108 6.0025 16.5008C6.0125 12.8608 8.57251 9.7208 12.1425 8.9808" stroke="#019CB0" stroke-width="1.5" stroke-linecap="round" stroke-linejoin="round"/>
</svg>
