<svg width="30" height="30" viewBox="0 0 30 30" fill="none" xmlns="http://www.w3.org/2000/svg">
<path d="M21.7792 24.6003C22.1992 23.8903 21.9592 22.9702 21.2392 22.5602C21.2392 22.5602 21.2392 22.5602 21.2292 22.5602C20.5092 22.1502 20.2592 21.2402 20.6692 20.5302C20.6692 20.5302 20.6692 20.5302 20.6692 20.5202C20.7992 20.2902 20.9892 20.1002 21.2192 19.9702C21.9292 19.5602 22.1792 18.6402 21.7692 17.9302L21.2792 17.0802C20.8692 16.3602 19.9492 16.1202 19.2292 16.5302C18.5192 16.9502 17.6092 16.7202 17.1892 16.0102C17.0592 15.7902 16.9892 15.5402 16.9892 15.2902C17.0192 14.4602 16.3692 13.7702 15.5392 13.7402C15.5192 13.7402 15.5092 13.7402 15.4892 13.7402H14.5092C13.6892 13.7402 13.0192 14.4102 13.0192 15.2302C13.0192 15.2302 13.0192 15.2302 13.0192 15.2402C13.0092 16.0602 12.3392 16.7202 11.5092 16.7202C11.2592 16.7202 11.0092 16.6502 10.7892 16.5202C10.0692 16.1102 9.1592 16.3503 8.7392 17.0703L8.21918 17.9302C7.80918 18.6502 8.0492 19.5602 8.7692 19.9802C9.2292 20.2502 9.5192 20.7402 9.5192 21.2802C9.5192 21.8202 9.2292 22.3102 8.7692 22.5802C8.0592 22.9902 7.80918 23.9002 8.21918 24.6202" stroke="#019CB0" stroke-width="1.5" stroke-linecap="round" stroke-linejoin="round"/>
<path d="M15.0095 23.3314C16.1527 23.3314 17.0795 22.4046 17.0795 21.2614C17.0795 20.1182 16.1527 19.1914 15.0095 19.1914C13.8662 19.1914 12.9395 20.1182 12.9395 21.2614C12.9395 22.4046 13.8662 23.3314 15.0095 23.3314Z" stroke="#019CB0" stroke-width="1.5" stroke-linecap="round" stroke-linejoin="round"/>
<path d="M19.68 5H10.31C7.04 5 5 7.31 5 10.59V19.42C5 22.69 7.04 25.01 10.31 25.01H19.68C22.96 25.01 24.99 22.7 24.99 19.42V10.59C24.99 7.32 22.95 5 19.68 5Z" stroke="#FFB66C" stroke-width="1.5" stroke-linecap="round" stroke-linejoin="round"/>
</svg>
