<svg width="30" height="30" viewBox="0 0 30 30" fill="none" xmlns="http://www.w3.org/2000/svg">
<path d="M18.4196 14.8006C18.4196 16.5506 16.9996 17.9606 15.2596 17.9606C13.5196 17.9606 12.0996 16.5406 12.0996 14.8006C12.0996 13.0506 13.5196 11.6406 15.2596 11.6406C17.0096 11.6406 18.4196 13.0606 18.4196 14.8006Z" stroke="#FFB66C" stroke-width="1.5" stroke-linecap="round" stroke-linejoin="round"/>
<path d="M9.89999 20.2201C8.17999 18.7901 6.83 16.9601 6 14.8801C6.85 12.7901 8.19999 10.9501 9.92999 9.52007C11.43 8.29007 13.31 7.60008 15.25 7.58008C17.2 7.61008 19.08 8.30008 20.59 9.54008" stroke="#019CB0" stroke-width="1.5" stroke-linecap="round" stroke-linejoin="round"/>
<path d="M22.7007 11.7402C23.4207 12.7102 24.0307 13.7702 24.5007 14.8902C22.5307 19.4502 19.0607 22.1902 15.2507 22.1902C14.3907 22.1902 13.5407 22.0502 12.7207 21.7802" stroke="#019CB0" stroke-width="1.5" stroke-linecap="round" stroke-linejoin="round"/>
<path d="M23.1391 7L7.36914 22.77" stroke="#FFB66C" stroke-width="1.5" stroke-linecap="round" stroke-linejoin="round"/>
</svg>
