<svg width="30" height="30" viewBox="0 0 30 30" fill="none" xmlns="http://www.w3.org/2000/svg">
<path d="M12.65 23.7725V20.7025C12.65 19.9225 13.29 19.2825 14.07 19.2825H16.96C17.75 19.2825 18.39 19.9125 18.39 20.7025V23.7825C18.39 24.4525 18.92 24.9925 19.59 25.0025H21.51C23.42 25.0125 24.97 23.4725 24.99 21.5625V12.8325C24.98 12.0825 24.62 11.3825 24.03 10.9325L17.45 5.6825C16.29 4.7725 14.66 4.7725 13.51 5.6825L6.96 10.9425C6.36 11.3925 6.01 12.0925 6 12.8425V21.5525C6 23.4625 7.56 25.0025 9.47 24.9925H11.4C12.08 24.9925 12.64 24.4425 12.64 23.7625" stroke="#019CB0" stroke-width="1.5" stroke-linecap="round" stroke-linejoin="round"/>
</svg>
