<svg width="30" height="30" viewBox="0 0 30 30" fill="none" xmlns="http://www.w3.org/2000/svg">
<path d="M19.98 8H11.01C8.79534 8 7 9.79535 7 12.01V15.32C7 17.5347 8.79534 19.33 11.01 19.33H19.98C22.1947 19.33 23.99 17.5347 23.99 15.32V12.01C23.99 9.79535 22.1947 8 19.98 8Z" stroke="#019CB0" stroke-width="1.5" stroke-linecap="round" stroke-linejoin="round"/>
<path d="M10.8295 12.4207C11.0448 12.4207 11.2195 12.246 11.2195 12.0306C11.2195 11.8152 11.0448 11.6406 10.8295 11.6406C10.6141 11.6406 10.4395 11.8152 10.4395 12.0306C10.4395 12.246 10.6141 12.4207 10.8295 12.4207Z" stroke="#FFB66C" stroke-width="1.5" stroke-linecap="round" stroke-linejoin="round"/>
<path d="M10.8295 16.0886C11.0448 16.0886 11.2195 15.914 11.2195 15.6986C11.2195 15.4832 11.0448 15.3086 10.8295 15.3086C10.6141 15.3086 10.4395 15.4832 10.4395 15.6986C10.4395 15.914 10.6141 16.0886 10.8295 16.0886Z" stroke="#FFB66C" stroke-width="1.5" stroke-linecap="round" stroke-linejoin="round"/>
<path d="M14.9004 12.0312H20.5604" stroke="#FFB66C" stroke-width="1.5" stroke-linecap="round" stroke-linejoin="round"/>
<path d="M14.9004 15.6992H20.5604" stroke="#FFB66C" stroke-width="1.5" stroke-linecap="round" stroke-linejoin="round"/>
<path d="M8.62109 22.5586H21.5611" stroke="#019CB0" stroke-width="1.5" stroke-linecap="round" stroke-linejoin="round"/>
<path d="M15.0898 19.3301V22.5601" stroke="#019CB0" stroke-width="1.5" stroke-linecap="round" stroke-linejoin="round"/>
</svg>
