<svg width="30" height="30" viewBox="0 0 30 30" fill="none" xmlns="http://www.w3.org/2000/svg">
<path d="M17.2593 24.6589H15.3793C11.3193 24.6589 8.0293 21.3689 8.0293 17.3089V12.8789H24.6093V17.3089C24.6093 21.3689 21.3193 24.6589 17.2593 24.6589Z" stroke="#019CB0" stroke-width="1.5" stroke-linecap="round" stroke-linejoin="round"/>
<path d="M9.44 21.7288L6.34 20.6588C4.95 20.2088 4 18.8988 4 17.4288C4 16.3288 4.51 15.3188 5.4 14.6688C6.15 14.1188 7.06 13.9088 7.95 14.0588" stroke="#019CB0" stroke-width="1.5" stroke-linecap="round" stroke-linejoin="round"/>
<path d="M7.46094 24.6602H25.1809" stroke="#019CB0" stroke-width="1.5" stroke-linecap="round" stroke-linejoin="round"/>
<path d="M20.5605 12.8789V15.7489" stroke="#FFB66C" stroke-width="1.5" stroke-linecap="round" stroke-linejoin="round"/>
<path d="M21.9209 15.75H19.2109V19.14H21.9209V15.75Z" stroke="#FFB66C" stroke-width="1.5" stroke-linecap="round" stroke-linejoin="round"/>
<path d="M19.3994 5C18.9294 5.54 18.9294 6.34 19.3994 6.87C19.8694 7.41 19.8694 8.21002 19.3994 8.74002C18.9294 9.28002 18.9294 10.08 19.3994 10.61" stroke="#FFB66C" stroke-width="1.5" stroke-linecap="round" stroke-linejoin="round"/>
<path d="M16.3193 5C15.8493 5.54 15.8493 6.34 16.3193 6.87C16.7893 7.41 16.7893 8.21002 16.3193 8.74002C15.8493 9.28002 15.8493 10.08 16.3193 10.61" stroke="#FFB66C" stroke-width="1.5" stroke-linecap="round" stroke-linejoin="round"/>
<path d="M13.2392 5C12.7692 5.54 12.7692 6.34 13.2392 6.87C13.7092 7.41 13.7092 8.21002 13.2392 8.74002C12.7692 9.28002 12.7692 10.08 13.2392 10.61" stroke="#FFB66C" stroke-width="1.5" stroke-linecap="round" stroke-linejoin="round"/>
</svg>
