<svg width="30" height="30" viewBox="0 0 30 30" fill="none" xmlns="http://www.w3.org/2000/svg">
<path d="M15.05 5.01001C9.53 4.98001 5.03 9.43001 5 14.95C5 16.58 5.38 18.19 6.14 19.63L6.34 20.02C6.51 20.33 6.54 20.69 6.44 21.02C6.15 21.78 5.92 22.56 5.73 23.34C5.73 23.74 5.84 23.97 6.27 23.96C7.03 23.79 7.77 23.58 8.5 23.31C8.82 23.22 9.15 23.24 9.45 23.37C9.73 23.5 10.29 23.85 10.31 23.85C15.2 26.42 21.24 24.55 23.82 19.66C26.39 14.77 24.52 8.72996 19.63 6.14996C18.22 5.40996 16.65 5.01 15.05 5V5.01001Z" stroke="#019CB0" stroke-width="1.5" stroke-linecap="round" stroke-linejoin="round"/>
<path d="M14.6504 20.8594C14.9265 20.8594 15.1504 20.6355 15.1504 20.3593C15.1504 20.0832 14.9265 19.8594 14.6504 19.8594C14.3742 19.8594 14.1504 20.0832 14.1504 20.3593C14.1504 20.6355 14.3742 20.8594 14.6504 20.8594Z" stroke="#FFB66C" stroke-width="1.5" stroke-linecap="round" stroke-linejoin="round"/>
<path d="M12.1504 12.1307C12.1504 10.6607 13.3404 9.4707 14.8104 9.4707C16.2804 9.4707 17.4704 10.6607 17.4704 12.1307C17.4704 13.6007 16.2804 14.7907 14.8104 14.7907V16.9207" stroke="#FFB66C" stroke-width="1.5" stroke-linecap="round" stroke-linejoin="round"/>
</svg>
