<svg width="30" height="30" viewBox="0 0 30 30" fill="none" xmlns="http://www.w3.org/2000/svg">
<path d="M17.8294 8.86005C17.8294 10.44 14.9694 12.97 14.9694 12.97C14.9694 12.97 12.1094 10.44 12.1094 8.86005C12.1094 7.28005 13.3894 6 14.9694 6C16.5494 6 17.8294 7.28005 17.8294 8.86005Z" stroke="#019CB0" stroke-width="1.5" stroke-linecap="round" stroke-linejoin="round"/>
<path d="M14.9697 12.9688L21.9397 19.6688L19.5297 23.5988C19.5297 23.5988 12.1897 15.9287 11.2197 14.8387C9.82968 13.2887 10.4397 10.8387 12.4697 7.46875" stroke="#019CB0" stroke-width="1.5" stroke-linecap="round" stroke-linejoin="round"/>
<path d="M17.8904 15.7504C18.2804 15.3304 18.5805 15.0105 18.7305 14.8505C20.1205 13.3005 19.5105 10.8505 17.4805 7.48047" stroke="#019CB0" stroke-width="1.5" stroke-linecap="round" stroke-linejoin="round"/>
<path d="M11.99 15.8398L8 19.6699L10.41 23.5999C10.41 23.5999 12.68 21.2298 14.86 18.9298" stroke="#019CB0" stroke-width="1.5" stroke-linecap="round" stroke-linejoin="round"/>
<path d="M13.2109 10.9102H16.7409" stroke="#019CB0" stroke-width="1.5" stroke-linecap="round" stroke-linejoin="round"/>
</svg>
