<svg width="30" height="30" viewBox="0 0 30 30" fill="none" xmlns="http://www.w3.org/2000/svg">
<path d="M18.2897 6V9.94C18.2897 10.79 17.5997 11.48 16.7497 11.48H13.7197C12.8697 11.48 12.1797 10.79 12.1797 9.94V8.94" stroke="#FFB66C" stroke-width="1.5" stroke-linecap="round" stroke-linejoin="round"/>
<path d="M10.9102 24.4497V21.4497C10.9102 20.6097 11.5902 19.9297 12.4302 19.9297H18.0302C18.8702 19.9297 19.5502 20.6097 19.5502 21.4497V24.4497" stroke="#FFB66C" stroke-width="1.5" stroke-linecap="round" stroke-linejoin="round"/>
<path d="M16.78 6H18.25C19.08 6 19.88 6.34 20.45 6.94L23.42 10.06C24.09 10.76 24.46 11.69 24.46 12.66V19.3C24.46 22.14 22.15 24.45 19.31 24.45H10.9C8.19001 24.45 6 22.26 6 19.55V11.15C6 8.12999 7.89001 6 10.9 6H16.78Z" stroke="#019CB0" stroke-width="1.5" stroke-linecap="round" stroke-linejoin="round"/>
</svg>
