<svg width="30" height="30" viewBox="0 0 30 30" fill="none" xmlns="http://www.w3.org/2000/svg">
<path d="M20.9 12.8C22.5016 12.8 23.8 11.5017 23.8 9.90002C23.8 8.2984 22.5016 7 20.9 7C19.2984 7 18 8.2984 18 9.90002C18 11.5017 19.2984 12.8 20.9 12.8Z" stroke="#FFB66C" stroke-width="1.5" stroke-linecap="round" stroke-linejoin="round"/>
<path d="M20.9 23.7004C22.5016 23.7004 23.8 22.402 23.8 20.8004C23.8 19.1988 22.5016 17.9004 20.9 17.9004C19.2984 17.9004 18 19.1988 18 20.8004C18 22.402 19.2984 23.7004 20.9 23.7004Z" stroke="#FFB66C" stroke-width="1.5" stroke-linecap="round" stroke-linejoin="round"/>
<path d="M18.4394 19.3414L13.3594 16.4414" stroke="#FFB66C" stroke-width="1.5" stroke-linecap="round" stroke-linejoin="round"/>
<path d="M17.3799 10.6289L14.4199 12.3189" stroke="#FFB66C" stroke-width="1.5" stroke-linecap="round" stroke-linejoin="round"/>
<path d="M9.9 17.8899C11.5016 17.8899 12.8 16.5915 12.8 14.9899C12.8 13.3882 11.5016 12.0898 9.9 12.0898C8.29838 12.0898 7 13.3882 7 14.9899C7 16.5915 8.29838 17.8899 9.9 17.8899Z" stroke="#019CB0" stroke-width="1.5" stroke-linecap="round" stroke-linejoin="round"/>
</svg>
