<svg width="30" height="30" viewBox="0 0 30 30" fill="none" xmlns="http://www.w3.org/2000/svg">
<path d="M15.2495 15.7295C15.5146 15.7295 15.7295 15.5146 15.7295 15.2495C15.7295 14.9844 15.5146 14.7695 15.2495 14.7695C14.9844 14.7695 14.7695 14.9844 14.7695 15.2495C14.7695 15.5146 14.9844 15.7295 15.2495 15.7295Z" stroke="#FFB66C" stroke-width="1.5" stroke-linecap="round" stroke-linejoin="round"/>
<path d="M15.2495 15.7295C15.5146 15.7295 15.7295 15.5146 15.7295 15.2495C15.7295 14.9844 15.5146 14.7695 15.2495 14.7695C14.9844 14.7695 14.7695 14.9844 14.7695 15.2495C14.7695 15.5146 14.9844 15.7295 15.2495 15.7295Z" stroke="#FFB66C" stroke-width="1.5" stroke-linecap="round" stroke-linejoin="round"/>
<path d="M15.2495 15.7295C15.5146 15.7295 15.7295 15.5146 15.7295 15.2495C15.7295 14.9844 15.5146 14.7695 15.2495 14.7695C14.9844 14.7695 14.7695 14.9844 14.7695 15.2495C14.7695 15.5146 14.9844 15.7295 15.2495 15.7295Z" fill="#FFB66C" stroke="#FFB66C" stroke-width="1.5" stroke-linecap="round" stroke-linejoin="round"/>
<path d="M19.58 6H10.91C7.89 6 6 8.13998 6 11.17V19.34C6 22.37 7.88 24.51 10.91 24.51H19.58C22.61 24.51 24.5 22.37 24.5 19.34V11.17C24.5 8.13998 22.61 6 19.58 6Z" stroke="#019CB0" stroke-width="1.5" stroke-linecap="round" stroke-linejoin="round"/>
</svg>
