<svg width="30" height="30" viewBox="0 0 30 30" fill="none" xmlns="http://www.w3.org/2000/svg">
<path d="M16.85 7.00005H8.29999C6.48999 6.99005 5.01 8.44005 5 10.2501V12.93C6.15 12.88 7.12999 13.78 7.17999 14.93C7.17999 14.95 7.17999 14.97 7.17999 14.99C7.17999 16.18 6.21001 17.15 5.01001 17.14C5.01001 17.14 5.01 17.14 5 17.14V19.7301C5.01 21.5401 6.48999 23 8.29999 22.99H16.85" stroke="#019CB0" stroke-width="1.5" stroke-linecap="round" stroke-linejoin="round"/>
<path d="M19.7695 22.9998H21.6995C23.5095 23.0098 24.9895 21.5598 24.9995 19.7498V17.1598C23.8095 17.1598 22.8495 16.1998 22.8495 15.0098C22.8495 13.8198 23.8095 12.8598 24.9995 12.8598V10.2698C24.9895 8.4598 23.5095 6.99982 21.6995 7.00982H20.2295" stroke="#019CB0" stroke-width="1.5" stroke-linecap="round" stroke-linejoin="round"/>
<path d="M16.8496 7V9.66998" stroke="#FFB66C" stroke-width="1.5" stroke-linecap="round" stroke-linejoin="round"/>
<path d="M16.8496 16.8V12.5" stroke="#FFB66C" stroke-width="1.5" stroke-linecap="round" stroke-linejoin="round"/>
<path d="M16.8496 20.0801V22.7901" stroke="#FFB66C" stroke-width="1.5" stroke-linecap="round" stroke-linejoin="round"/>
</svg>
