<svg width="30" height="30" viewBox="0 0 30 30" fill="none" xmlns="http://www.w3.org/2000/svg">
<path d="M14.2605 13.56C16.9004 13.56 19.0405 11.4199 19.0405 8.78C19.0405 6.14008 16.9004 4 14.2605 4C11.6205 4 9.48047 6.14008 9.48047 8.78C9.48047 11.4199 11.6205 13.56 14.2605 13.56Z" stroke="#FFB66C" stroke-width="1.5" stroke-linecap="round" stroke-linejoin="round"/>
<path d="M17.8897 17.2109H10.6197C8.44369 17.2109 6.67969 18.9749 6.67969 21.1509V21.8809C6.67969 24.0569 8.44369 25.8209 10.6197 25.8209H17.8897C20.0657 25.8209 21.8297 24.0569 21.8297 21.8809V21.1509C21.8297 18.9749 20.0657 17.2109 17.8897 17.2109Z" stroke="#019CB0" stroke-width="1.5" stroke-linecap="round" stroke-linejoin="round"/>
<path d="M8.18976 13.7311C6.15976 13.7311 4.50977 12.0811 4.50977 10.0511C4.50977 8.02109 6.15976 6.37109 8.18976 6.37109" stroke="#FFB66C" stroke-width="1.5" stroke-linecap="round" stroke-linejoin="round"/>
<path d="M5.94 17.2109C3.77 17.2109 2 18.9709 2 21.1509V21.8909C2 24.0609 3.76 25.8309 5.94 25.8309" stroke="#019CB0" stroke-width="1.5" stroke-linecap="round" stroke-linejoin="round"/>
<path d="M20.8301 13.7311C22.8601 13.7311 24.5101 12.0811 24.5101 10.0511C24.5101 8.02109 22.8601 6.37109 20.8301 6.37109" stroke="#FFB66C" stroke-width="1.5" stroke-linecap="round" stroke-linejoin="round"/>
<path d="M23.0801 17.2109C25.2501 17.2109 27.0201 18.9709 27.0201 21.1509V21.8909C27.0201 24.0609 25.2601 25.8309 23.0801 25.8309" stroke="#019CB0" stroke-width="1.5" stroke-linecap="round" stroke-linejoin="round"/>
</svg>
