<svg width="30" height="30" viewBox="0 0 30 30" fill="none" xmlns="http://www.w3.org/2000/svg">
<path d="M17.1902 13.56C19.8301 13.56 21.9702 11.4199 21.9702 8.78C21.9702 6.14008 19.8301 4 17.1902 4C14.5502 4 12.4102 6.14008 12.4102 8.78C12.4102 11.4199 14.5502 13.56 17.1902 13.56Z" stroke="#FFB66C" stroke-width="1.5" stroke-linecap="round" stroke-linejoin="round"/>
<path d="M20.8194 17.2109H13.5494C11.3734 17.2109 9.60938 18.9749 9.60938 21.1509V21.8809C9.60938 24.0569 11.3734 25.8209 13.5494 25.8209H20.8194C22.9954 25.8209 24.7594 24.0569 24.7594 21.8809V21.1509C24.7594 18.9749 22.9954 17.2109 20.8194 17.2109Z" stroke="#019CB0" stroke-width="1.5" stroke-linecap="round" stroke-linejoin="round"/>
<path d="M11.1995 13.7311C9.16952 13.7311 7.51953 12.0811 7.51953 10.0511C7.51953 8.02109 9.16952 6.37109 11.1995 6.37109" stroke="#FFB66C" stroke-width="1.5" stroke-linecap="round" stroke-linejoin="round"/>
<path d="M8.94 17.2109C6.77 17.2109 5 18.9709 5 21.1509V21.8909C5 24.0609 6.76 25.8309 8.94 25.8309" stroke="#019CB0" stroke-width="1.5" stroke-linecap="round" stroke-linejoin="round"/>
</svg>
