<svg width="30" height="30" viewBox="0 0 30 30" fill="none" xmlns="http://www.w3.org/2000/svg">
<path d="M5.72275 25.2227C-2.0322 20.3985 -2.70342 7.12701 8.69203 3.48553C8.69203 3.48553 -2.51384 12.406 5.72275 25.2253V25.2227ZM14.9995 2.21712C16.7826 4.26529 19.8467 2.23012 18.7937 0C16.9491 3.36337 14.9995 0.644602 14.9995 0.644602C14.9995 0.644602 13.0473 3.36077 11.2053 0C10.1523 2.23012 13.2164 4.26529 14.9995 2.21712ZM21.307 3.48553C21.307 3.48553 32.5128 12.406 24.2762 25.2253C32.0337 20.3985 32.7024 7.12961 21.307 3.48553ZM24.7553 14.6959C24.3249 6.36025 19.9671 3.82603 19.9671 3.82603C19.9671 3.82603 27.7246 15.3301 16.3291 24.9446L16.8313 13.0506V4.31468C16.1857 4.15613 14.9995 2.76815 14.9995 2.76815C14.9995 2.76815 13.8133 4.15613 13.1677 4.31468V13.0506L13.6699 24.9446C2.2744 15.3301 10.0319 3.82603 10.0319 3.82603C10.0319 3.82603 5.67408 6.36025 5.24367 14.6959C5.10021 22.9328 12.4734 26.9797 12.4734 26.9797C11.8022 27.3202 9.98324 27.905 6.72703 27.905C10.7006 29.319 13.7185 28.2949 13.7185 28.2949L14.9995 30L16.2805 28.2949C16.2805 28.2949 19.2958 29.319 23.272 27.905C20.0157 27.905 18.1968 27.3202 17.5256 26.9797C17.5256 26.9797 24.8988 22.9354 24.7553 14.6959Z" fill="#019CB0"/>
</svg>
