<svg width="351" height="391" viewBox="0 0 351 391" fill="none" xmlns="http://www.w3.org/2000/svg">
<path d="M221.089 183.303L272.492 163.119V87.647C272.492 87.647 272.492 57.2882 246.706 57.6263C220.92 57.9644 221.089 87.647 221.089 87.647V183.303Z" fill="#CACCCC"/>
<path d="M260.471 167.838V87.6448C260.471 87.6448 258.682 57.5065 235.56 60.1085C220.972 67.3044 221.089 87.6448 221.089 87.6448V183.3L260.471 167.838Z" fill="#8B8C8C"/>
<path d="M272.492 163.119L314.966 171.598C314.966 171.598 342.724 178.042 330.51 191.951C321.33 202.406 297.601 198.057 297.601 198.057L221.092 183.302L272.494 163.119H272.492Z" fill="#CACCCC"/>
<path d="M176.738 372.747C176.738 372.747 210.16 271.834 259.258 234.123" stroke="#CACCCC" stroke-linecap="round" stroke-linejoin="round"/>
<path d="M246.172 254.762C246.032 254.74 246.029 254.544 246.167 254.514C251.323 253.412 258.305 253.284 263.064 253.358C263.407 253.363 263.711 253.137 263.806 252.809V252.804C266.176 244.641 306.173 199.006 245.552 230.695C229.654 239.005 216.715 251.885 206.27 266.363C208.91 269.688 212.35 274.669 214.049 279.806C214.049 279.806 207.302 275.296 201.925 272.689C175.934 312.409 167.281 360.504 167.281 360.504C167.281 360.504 141.328 382.457 177.086 379.36C211.012 376.42 249.84 295.401 262.061 258.398C256.543 256.504 248.495 255.137 246.167 254.764L246.172 254.762Z" stroke="#CACCCC" stroke-linecap="round" stroke-linejoin="round"/>
<path d="M225.87 271.603C225.87 271.603 242.905 266.916 257.19 271.834" stroke="#CACCCC" stroke-linecap="round" stroke-linejoin="round"/>
<path d="M220.584 279.559C220.584 279.559 246.15 274.259 253.384 281.188" stroke="#CACCCC" stroke-linecap="round" stroke-linejoin="round"/>
<path d="M193.958 286.419C193.958 286.419 203.447 291.469 207.265 302.2" stroke="#CACCCC" stroke-linecap="round" stroke-linejoin="round"/>
<path d="M349.849 274.732C329.976 257.782 272.215 263.339 227.753 288.859C181.659 315.317 174.777 384.853 174.777 384.853C189.609 390.581 270.063 318.314 279.437 307.386C271.509 300.83 262.537 294.984 262.537 294.984C269.975 294.984 278.474 298.552 285.066 302.085C288.298 299.512 292.366 296.738 296.8 294.021C287.012 289.058 277.351 285.571 277.351 285.571C284.914 284.608 299.086 286.24 308.286 287.534C318.51 282.214 328.584 278.16 333.616 278.003C340.541 277.787 346.035 277.317 349.126 277.001C350.255 276.886 350.714 275.467 349.849 274.729V274.732Z" fill="#E8EAEB"/>
<path d="M174.777 384.853C174.777 384.853 239.999 273.615 312.734 271.833" stroke="#CACCCC" stroke-linecap="round" stroke-linejoin="round"/>
<path d="M226.812 289.41C226.812 289.41 232.127 300.766 227.753 317.211" stroke="#CACCCC" stroke-linecap="round" stroke-linejoin="round"/>
<path d="M236.445 284.204C236.445 284.204 240.217 299.938 238.67 307.002" stroke="#CACCCC" stroke-linecap="round" stroke-linejoin="round"/>
<path d="M180.168 384.958C180.168 384.958 250.776 327.377 304.384 327.166" stroke="#CACCCC" stroke-linecap="round" stroke-linejoin="round"/>
<path d="M279.304 358.218C279.304 358.218 267.183 342.937 247.784 342.43" stroke="#CACCCC" stroke-linecap="round" stroke-linejoin="round"/>
<path d="M289.916 350.473C289.916 350.473 273.935 335.187 263.542 335.819" stroke="#CACCCC" stroke-linecap="round" stroke-linejoin="round"/>
<path d="M292.251 318.578C225.586 314.087 178.085 385.821 178.085 385.821C197.142 387.898 230.139 377.846 253.575 369.082C248.247 361.048 239.043 351.544 239.043 351.544C243.748 352.186 256.227 359.867 264.115 364.98C271.394 362.03 276.851 359.551 279.304 358.218C289.484 352.691 296.66 342.275 308.396 337.586C320.132 332.897 350.38 322.494 292.251 318.578Z" stroke="#CACCCC" stroke-linecap="round" stroke-linejoin="round"/>
<path d="M159.889 280.526C146.151 258.27 108.566 230.707 76.0432 228.796C43.5183 226.885 6.79544 233.507 0.52671 240.321C-5.74202 247.134 45.8537 242.32 54.007 251.439C54.8941 252.429 56.1562 253.698 57.7124 255.19C67.2944 253.216 80.8415 250.758 86.304 251.373L64.0448 261.1C78.9227 274.781 103.414 296.687 107.193 308.374C112.119 323.604 156.427 377.16 171.939 375.881C171.939 375.881 173.628 302.783 159.889 280.524V280.526Z" fill="#F2F4F5"/>
<path d="M162.761 367.514C162.761 367.514 138.429 239.238 48.7406 233.385C47.7799 233.321 46.8193 233.24 45.8611 233.142" stroke="#CACCCC" stroke-linecap="round" stroke-linejoin="round"/>
<path d="M127.879 283.503C127.879 283.503 129.408 261.509 134.057 253.669" stroke="#CACCCC" stroke-linecap="round" stroke-linejoin="round"/>
<path d="M101.498 298.693C101.498 298.693 130.367 296.665 139.853 303.54" stroke="#CACCCC" stroke-linecap="round" stroke-linejoin="round"/>
<path d="M106.603 306.843C106.603 306.843 134.807 305.855 143.527 310.92" stroke="#CACCCC" stroke-linecap="round" stroke-linejoin="round"/>
<path d="M73.9478 270.212C73.9478 270.212 96.55 261.012 115.893 268.234" stroke="#CACCCC" stroke-linecap="round" stroke-linejoin="round"/>
<path d="M139.824 258.113C140.245 258.476 134.207 275.166 133.354 291.981" stroke="#CACCCC" stroke-linecap="round" stroke-linejoin="round"/>
<path d="M179.869 163.119H154.081V384.958H179.869V163.119Z" fill="#CACCCC"/>
<path d="M79.0991 165.493L221.089 183.303V87.6474L79.0991 72.8906V165.493Z" fill="#E8EAEB"/>
<path d="M79.0991 72.89C79.0991 72.89 85.6815 44.4766 111.266 44.4766C132.981 44.4766 246.703 57.6261 246.703 57.6261C246.703 57.6261 222.437 60.4998 221.087 87.6468L79.0967 72.8925L79.0991 72.89Z" fill="#E8EAEB"/>
<path d="M134.057 45.876C128.345 48.5196 122.951 54.145 119.368 59.0818C113.418 67.2798 111.462 75.6051 111.382 75.9555L111.313 76.2519V169.533L116.699 170.21V76.8914C117.077 75.4605 119.045 68.6396 123.831 62.1028C129.744 54.0274 134.408 48.5931 143.818 46.7335C140.409 46.4223 137.138 46.1332 134.057 45.876Z" fill="#CACCCC"/>
<path d="M198.715 52.2881C193.237 55.042 188.106 60.4346 184.658 65.1877C178.708 73.3856 176.752 82.6077 176.671 82.9605H176.603V177.724L181.989 178.4V83.8964C182.366 81.5689 184.334 74.7479 189.12 68.2111C194.666 60.6379 199.112 55.3899 207.405 53.2314C204.581 52.9227 201.68 52.609 198.717 52.2905L198.715 52.2881Z" fill="#CACCCC"/>
<path d="M200.352 119.699C207.73 119.699 213.711 113.72 213.711 106.344C213.711 98.9677 207.73 92.9883 200.352 92.9883C192.974 92.9883 186.994 98.9677 186.994 106.344C186.994 113.72 192.974 119.699 200.352 119.699Z" fill="#5ECCDF"/>
<path d="M200.352 115.788C205.57 115.788 209.799 111.56 209.799 106.343C209.799 101.127 205.57 96.8984 200.352 96.8984C195.134 96.8984 190.905 101.127 190.905 106.343C190.905 111.56 195.134 115.788 200.352 115.788Z" fill="#E8EAEB"/>
<path d="M221.967 175V230.969" stroke="#8B8C8C" stroke-miterlimit="10"/>
<path d="M218.61 221.341C218.61 221.341 219.105 223.7 220.931 224.315" stroke="#E8EAEB" stroke-width="4" stroke-linecap="round" stroke-linejoin="round"/>
<path d="M220.74 227.563C220.74 227.563 219.409 230.045 215.52 229.423" stroke="#CACCCC" stroke-width="4" stroke-linecap="round" stroke-linejoin="round"/>
<path d="M223.867 227.563C223.867 227.563 225.197 230.045 229.087 229.423" stroke="#CACCCC" stroke-width="4" stroke-linecap="round" stroke-linejoin="round"/>
<path d="M226.182 221.341C226.182 221.341 225.687 223.7 223.862 224.315" stroke="#E8EAEB" stroke-width="4" stroke-linecap="round" stroke-linejoin="round"/>
<path d="M220.357 226.577C220.299 226.577 216.289 227.032 215.437 223.82" stroke="#CACCCC" stroke-width="4" stroke-linecap="round" stroke-linejoin="round"/>
<path d="M224.582 226.577C224.641 226.577 228.65 227.032 229.503 223.82" stroke="#CACCCC" stroke-width="4" stroke-linecap="round" stroke-linejoin="round"/>
<path d="M222.286 234.939C223.434 234.939 224.364 234.009 224.364 232.861C224.364 231.714 223.434 230.784 222.286 230.784C221.138 230.784 220.208 231.714 220.208 232.861C220.208 234.009 221.138 234.939 222.286 234.939Z" fill="#8B8C8C"/>
<path d="M223.352 222.193C222.678 221.897 221.894 221.897 221.22 222.193C220.164 222.656 218.701 223.881 218.701 227.101C218.701 230.32 220.12 231.543 221.171 232.047C221.867 232.38 222.703 232.38 223.399 232.047C224.45 231.54 225.869 230.271 225.869 227.101C225.869 223.93 224.408 222.659 223.35 222.193H223.352Z" fill="#8B8C8C"/>
<path d="M212.437 333C212.437 333 234.503 325.684 254.437 330.84" stroke="#CACCCC" stroke-linecap="round" stroke-linejoin="round"/>
<path d="M205.437 343C205.437 343 228.785 336.25 240.437 343" stroke="#CACCCC" stroke-linecap="round" stroke-linejoin="round"/>
<path d="M28.9714 281.188C28.9714 281.188 109.382 287.862 140.172 356.062" stroke="#CACCCC" stroke-linecap="round" stroke-linejoin="round"/>
<path d="M34.8039 272.564C-18.0466 276.722 12.0938 288.428 31.0446 297.547C38.7396 294.742 47.0375 293.686 56.6146 294.458C57.1439 294.499 57.1684 295.315 56.6856 295.541C53.8699 296.851 46.9493 300.113 41.0726 303.2C41.2466 303.342 41.4108 303.484 41.5627 303.621C51.3383 312.64 110.303 388.7 150.097 359.603C150.097 359.603 122.385 265.672 34.8039 272.561V272.564Z" stroke="#CACCCC" stroke-linecap="round" stroke-linejoin="round"/>
<path d="M50.0566 312.73C50.0566 312.73 61.4889 298.733 86.1987 299.404" stroke="#CACCCC" stroke-linecap="round" stroke-linejoin="round"/>
<path d="M58.9719 273.277C58.9719 273.277 70.1076 280.34 72.3132 292.75" stroke="#CACCCC" stroke-linecap="round" stroke-linejoin="round"/>
<path d="M76.7905 277.621C76.7905 277.621 81.1968 289.205 80.1479 296.293" stroke="#CACCCC" stroke-linecap="round" stroke-linejoin="round"/>
<path d="M92.1048 315.244C88.1617 314.489 84.3485 313.85 80.6529 313.306L78.8713 323.616L73.3966 312.348C30.1305 307.303 5.77854 316.64 2.19326 324.402C-1.87725 333.222 52.7475 343.398 52.7475 343.398C52.7475 343.398 52.9558 343.498 53.3553 343.684C58.2541 339.87 67.4611 333.026 72.0022 331.755C72.0022 331.755 62.7535 339.573 58.2933 345.995C78.4817 355.383 147.651 386.953 162.676 385.799C162.676 385.799 147.068 325.76 92.1048 315.244Z" fill="#E8EAEB"/>
<path d="M20.1416 321.928C20.1416 321.928 119.684 315.729 154.192 380.092" stroke="#CACCCC" stroke-linecap="round" stroke-linejoin="round"/>
<path d="M86.1792 358.635C86.1792 358.635 99.567 340.24 110.847 339.561" stroke="#CACCCC" stroke-linecap="round" stroke-linejoin="round"/>
<path d="M97.4521 363.547C97.4521 363.547 107.73 346.982 118.851 343.949" stroke="#CACCCC" stroke-linecap="round" stroke-linejoin="round"/>
<path d="M92.1045 315.543C92.1045 315.543 92.4206 322.293 94.8075 332.75" stroke="#CACCCC" stroke-linecap="round" stroke-linejoin="round"/>
<path d="M118.437 386L218.437 386" stroke="#CACCCC" stroke-width="10" stroke-linecap="square" stroke-linejoin="round"/>
<path d="M206.437 106.127C206.437 109.495 203.569 112.202 200.118 111.988C197.209 111.809 194.821 109.502 194.579 106.629C194.392 104.403 195.461 102.41 197.163 101.266C198.185 100.578 198.786 99.4256 198.786 98.2017V19.6735H169.437L178.867 9.83676L169.437 0H202.288V98.2555C202.288 99.4881 202.918 100.622 203.933 101.335C205.447 102.399 206.437 104.149 206.437 106.125V106.127Z" fill="#5B7BB6"/>
</svg>
