<svg width="50" height="50" viewBox="0 0 50 50" fill="none" xmlns="http://www.w3.org/2000/svg">
<path d="M9.53792 42.0378C-3.387 33.9976 -4.50571 11.8784 14.4867 5.80922C14.4867 5.80922 -4.18974 20.6767 9.53792 42.0421V42.0378ZM24.9992 3.6952C27.971 7.10882 33.0778 3.71686 31.3228 0C28.2485 5.60561 24.9992 1.07434 24.9992 1.07434C24.9992 1.07434 21.7455 5.60128 18.6755 0C16.9205 3.71686 22.0273 7.10882 24.9992 3.6952ZM35.5116 5.80922C35.5116 5.80922 54.188 20.6767 40.4604 42.0421C53.3896 33.9976 54.504 11.8827 35.5116 5.80922ZM41.2589 24.4932C40.5415 10.6004 33.2785 6.37671 33.2785 6.37671C33.2785 6.37671 46.2076 25.5502 27.2152 41.5742L28.0521 21.751V7.19113C26.9761 6.92688 24.9992 4.61358 24.9992 4.61358C24.9992 4.61358 23.0222 6.92688 21.9462 7.19113V21.751L22.7831 41.5742C3.79067 25.5502 16.7199 6.37671 16.7199 6.37671C16.7199 6.37671 9.4568 10.6004 8.73946 24.4932C8.50034 38.2213 20.7891 44.9662 20.7891 44.9662C19.6703 45.5337 16.6387 46.5084 11.2117 46.5084C17.8343 48.865 22.8642 47.1582 22.8642 47.1582L24.9992 50L27.1341 47.1582C27.1341 47.1582 32.1597 48.865 38.7866 46.5084C33.3596 46.5084 30.328 45.5337 29.2093 44.9662C29.2093 44.9662 41.498 38.2256 41.2589 24.4932Z" fill="#019cb0"/>
</svg>
