<svg width="30" height="30" viewBox="0 0 30 30" fill="none" xmlns="http://www.w3.org/2000/svg">
<path d="M7.54974 7.19922H19.8298C22.8998 7.19922 24.8298 9.37922 24.8298 12.4592V20.7692C24.8298 23.8492 22.9098 26.0292 19.8298 26.0292H11.0098C7.91977 26.0292 6.00977 23.8492 6.00977 20.7692V16.7392" stroke="#019CB0" stroke-width="1.5" stroke-linecap="round" stroke-linejoin="round"/>
<path d="M12.2702 21.64V13.5L10.4902 15.28" stroke="#FFB66C" stroke-width="1.5" stroke-linecap="round" stroke-linejoin="round"/>
<path d="M9.48999 10.94L6 7.47L9.48999 4" stroke="#019CB0" stroke-width="1.5" stroke-linecap="round" stroke-linejoin="round"/>
<path d="M20.3507 16.19C20.3507 14.7 19.1507 13.5 17.6607 13.5C16.1707 13.5 14.9707 14.7 14.9707 16.19V18.94C14.9707 20.43 16.1707 21.63 17.6607 21.63C19.1507 21.63 20.3507 20.43 20.3507 18.94V16.19Z" stroke="#FFB66C" stroke-width="1.5" stroke-linecap="round" stroke-linejoin="round"/>
</svg>
