<svg width="30" height="30" viewBox="0 0 30 30" fill="none" xmlns="http://www.w3.org/2000/svg">
<path d="M19.2145 24.2291H10.8645C7.80448 24.2291 5.44448 23.1191 6.11448 18.6591L6.89448 12.6191C7.30448 10.3991 8.72448 9.53906 9.97448 9.53906H20.1545C21.4145 9.53906 22.7545 10.4591 23.2345 12.6191L24.0145 18.6591C24.5845 22.6091 22.2945 24.2291 19.2245 24.2291H19.2145Z" stroke="#019CB0" stroke-width="1.5" stroke-linecap="round" stroke-linejoin="round"/>
<path d="M19.3553 9.32003C19.3553 6.93003 17.4253 5.00004 15.0353 5.00004C12.6453 4.99004 10.7053 6.92004 10.6953 9.30004C10.6953 9.30004 10.6953 9.31003 10.6953 9.32003" stroke="#FFB66C" stroke-width="1.5" stroke-linecap="round" stroke-linejoin="round"/>
<path d="M17.9953 13.8301H17.9453" stroke="#019CB0" stroke-width="1.5" stroke-linecap="round" stroke-linejoin="round"/>
<path d="M12.1652 13.8301H12.1152" stroke="#019CB0" stroke-width="1.5" stroke-linecap="round" stroke-linejoin="round"/>
</svg>
