<svg width="30" height="30" viewBox="0 0 30 30" fill="none" xmlns="http://www.w3.org/2000/svg">
<path d="M7 16.79V16.57C7.03 15.92 7.23998 15.29 7.59998 14.75C8.19998 14.1 8.61999 13.3 8.79999 12.44C8.79999 11.77 8.79999 11.1 8.85999 10.43C9.15999 7.22 12.33 5 15.46 5H15.54C18.67 5 21.85 7.22 22.16 10.43C22.22 11.1 22.16 11.77 22.21 12.44C22.39 13.31 22.81 14.11 23.4 14.76C23.76 15.3 23.97 15.92 24 16.57V16.78C24.02 17.65 23.72 18.5 23.16 19.17C22.41 19.96 21.39 20.44 20.3 20.54C17.1 20.88 13.88 20.88 10.69 20.54C9.61 20.44 8.60003 19.95 7.84003 19.17C7.28003 18.5 6.99001 17.66 7.01001 16.79H7Z" stroke="#019CB0" stroke-width="1.5" stroke-linecap="round" stroke-linejoin="round"/>
<path d="M13.0605 23.8496C13.5605 24.4796 14.3005 24.8796 15.1005 24.9796C15.9005 25.0696 16.7105 24.8496 17.3505 24.3496C17.5405 24.2096 17.7205 24.0396 17.8705 23.8496" stroke="#FFB66C" stroke-width="1.5" stroke-linecap="round" stroke-linejoin="round"/>
</svg>
