<svg width="30" height="30" viewBox="0 0 30 30" fill="none" xmlns="http://www.w3.org/2000/svg">
<path d="M6.05078 18.7305C6.05078 18.7305 6.19078 20.4705 6.22078 21.0205C6.27078 21.7905 6.54078 22.5305 7.02078 23.1505C7.63078 23.9005 8.57078 24.3105 9.53078 24.2505H21.0008C21.9608 24.3205 22.9008 23.9105 23.5108 23.1505C23.9908 22.5405 24.2608 21.8005 24.3108 21.0205C24.3508 20.4705 24.4908 18.7305 24.4908 18.7305" stroke="#FFB66C" stroke-width="1.5" stroke-linecap="round" stroke-linejoin="round"/>
<path d="M11.75 8.58V8.21001C11.75 6.99001 12.74 6 13.96 6H16.54C17.76 6 18.75 6.99001 18.75 8.21001V8.58" stroke="#019CB0" stroke-width="1.5" stroke-linecap="round" stroke-linejoin="round"/>
<path d="M15.25 19.9306V18.6406" stroke="#019CB0" stroke-width="1.5" stroke-linecap="round" stroke-linejoin="round"/>
<path d="M6 11.6401V15.1101C8.03 16.4301 10.33 17.2901 12.74 17.6101C13.11 16.2301 14.53 15.4201 15.9 15.7901C16.79 16.0301 17.49 16.7301 17.72 17.6201C20.13 17.3001 22.45 16.4401 24.49 15.1101V11.6401C24.49 9.95008 23.13 8.59008 21.45 8.58008C21.45 8.58008 21.45 8.58008 21.44 8.58008H9.07001C7.38001 8.58008 6.01 9.94008 6 11.6301V11.6401Z" stroke="#019CB0" stroke-width="1.5" stroke-linecap="round" stroke-linejoin="round"/>
</svg>
