<svg width="30" height="30" viewBox="0 0 30 30" fill="none" xmlns="http://www.w3.org/2000/svg">
<path d="M15.5 5V10.58" stroke="#019CB0" stroke-width="1.5" stroke-linecap="round" stroke-linejoin="round"/>
<path d="M11.5703 25.6405L12.8503 24.4605L11.8503 22.3605L13.5103 20.4805" stroke="#019CB0" stroke-width="1.5" stroke-linecap="round" stroke-linejoin="round"/>
<path d="M9.2207 8.69141L10.9507 8.83142L11.4507 11.1014L13.9207 11.5614" stroke="#019CB0" stroke-width="1.5" stroke-linecap="round" stroke-linejoin="round"/>
<path d="M21.8211 8.69141L20.0911 8.83142L19.5911 11.1014L17.1211 11.5614" stroke="#019CB0" stroke-width="1.5" stroke-linecap="round" stroke-linejoin="round"/>
<path d="M6.82031 21.9191C6.91031 21.8591 9.93031 21.0691 9.93031 21.0691L13.0403 18.2891" stroke="#019CB0" stroke-width="1.5" stroke-linecap="round" stroke-linejoin="round"/>
<path d="M19.4713 25.6405L18.1913 24.4605L19.1913 22.3605L17.5312 20.4805" stroke="#019CB0" stroke-width="1.5" stroke-linecap="round" stroke-linejoin="round"/>
<path d="M24.2317 21.9191C24.1417 21.8591 21.1217 21.0691 21.1217 21.0691L18.0117 18.2891" stroke="#019CB0" stroke-width="1.5" stroke-linecap="round" stroke-linejoin="round"/>
<path d="M17.961 16.3303C17.961 17.7503 17.771 19.0803 17.441 20.0703C17.281 20.5603 17.061 21.0203 16.781 21.3703C16.511 21.7103 16.081 22.0703 15.501 22.0703C14.921 22.0703 14.491 21.7103 14.221 21.3703C13.941 21.0203 13.731 20.5603 13.561 20.0603C13.231 19.0603 13.041 17.7403 13.041 16.3203M13.561 12.5803C13.721 12.0903 13.941 11.6303 14.221 11.2703C14.491 10.9303 14.921 10.5703 15.501 10.5703C16.081 10.5703 16.511 10.9303 16.781 11.2703C17.061 11.6203 17.271 12.0803 17.441 12.5803" stroke="#019CB0" stroke-width="1.5" stroke-linecap="round" stroke-linejoin="round"/>
<path fill-rule="evenodd" clip-rule="evenodd" d="M17.1406 13.0388V13.8588C17.1406 14.5988 17.4306 15.6288 18.2606 16.4888C19.1106 17.3588 20.4506 17.9688 22.4106 17.9688C24.3706 17.9688 25.5206 17.5588 26.2606 16.8588C27.0306 16.1288 27.1106 15.1988 26.9006 14.5488L26.7406 14.0388L17.4606 12.9688L17.1406 13.0288V13.0388Z" stroke="#FFB66C" stroke-width="1.5" stroke-linecap="round" stroke-linejoin="round"/>
<path fill-rule="evenodd" clip-rule="evenodd" d="M13.8599 13.0388V13.8588C13.8599 14.5988 13.5699 15.6288 12.7399 16.4888C11.8899 17.3588 10.5499 17.9688 8.58991 17.9688C6.62991 17.9688 5.4799 17.5588 4.7399 16.8588C3.9699 16.1288 3.8899 15.1988 4.0999 14.5488L4.2599 14.0388L13.5399 12.9688L13.8599 13.0288V13.0388Z" stroke="#FFB66C" stroke-width="1.5" stroke-linecap="round" stroke-linejoin="round"/>
</svg>
