<svg width="30" height="30" viewBox="0 0 30 30" fill="none" xmlns="http://www.w3.org/2000/svg">
<path d="M19.58 4H10.91C7.89 4 6 6.13998 6 9.16998V21.34C6 24.37 7.88 26.51 10.91 26.51H19.58C22.61 26.51 24.5 24.37 24.5 21.34V9.16998C24.5 6.13998 22.61 4 19.58 4Z" stroke="#019CB0" stroke-width="1.5" stroke-linecap="round" stroke-linejoin="round"/>
<path d="M19.0999 7.41016H11.3999C10.3099 7.41016 9.41992 8.2902 9.41992 9.3902V11.4202C9.41992 12.5102 10.2999 13.4001 11.3999 13.4001H19.0999C20.1899 13.4001 21.0799 12.5202 21.0799 11.4202V9.3902C21.0799 8.3002 20.1999 7.41016 19.0999 7.41016Z" stroke="#FFB66C" stroke-width="1.5" stroke-linecap="round" stroke-linejoin="round"/>
<path d="M11.9899 17.8008H10.4199" stroke="#FFB66C" stroke-width="1.5" stroke-linecap="round" stroke-linejoin="round"/>
<path d="M20.07 17.8008H18.5" stroke="#FFB66C" stroke-width="1.5" stroke-linecap="round" stroke-linejoin="round"/>
<path d="M16.0309 17.8008H14.4609" stroke="#FFB66C" stroke-width="1.5" stroke-linecap="round" stroke-linejoin="round"/>
<path d="M11.9899 21.8984H10.4199" stroke="#FFB66C" stroke-width="1.5" stroke-linecap="round" stroke-linejoin="round"/>
<path d="M20.07 21.8984H18.5" stroke="#FFB66C" stroke-width="1.5" stroke-linecap="round" stroke-linejoin="round"/>
<path d="M16.0309 21.8984H14.4609" stroke="#FFB66C" stroke-width="1.5" stroke-linecap="round" stroke-linejoin="round"/>
</svg>
