<svg width="30" height="30" viewBox="0 0 30 30" fill="none" xmlns="http://www.w3.org/2000/svg">
<path d="M15.05 5.01001C9.53 4.98001 5.03 9.42998 5 14.95C5 16.58 5.38 18.19 6.14 19.63L6.34 20.02C6.51 20.33 6.54 20.69 6.44 21.02C6.15 21.78 5.92 22.56 5.73 23.34C5.73 23.74 5.84 23.97 6.27 23.96C7.03 23.79 7.77 23.58 8.5 23.31C8.82 23.22 9.15 23.24 9.45 23.37C9.73 23.5 10.29 23.85 10.31 23.85C15.2 26.42 21.24 24.55 23.82 19.66C26.39 14.77 24.52 8.72999 19.63 6.14999C18.22 5.40999 16.65 5.01 15.05 5V5.01001Z" stroke="#019CB0" stroke-width="1.5" stroke-linecap="round" stroke-linejoin="round"/>
<path d="M10.2808 15.4912C10.5459 15.4912 10.7608 15.2764 10.7608 15.0113C10.7608 14.7462 10.5459 14.5312 10.2808 14.5312C10.0157 14.5312 9.80078 14.7462 9.80078 15.0113C9.80078 15.2764 10.0157 15.4912 10.2808 15.4912Z" fill="#FFB66C" stroke="#FFB66C" stroke-width="1.5" stroke-linecap="round" stroke-linejoin="round"/>
<path d="M15.0503 15.4912C15.3154 15.4912 15.5303 15.2764 15.5303 15.0113C15.5303 14.7462 15.3154 14.5312 15.0503 14.5312C14.7852 14.5312 14.5703 14.7462 14.5703 15.0113C14.5703 15.2764 14.7852 15.4912 15.0503 15.4912Z" fill="#FFB66C" stroke="#FFB66C" stroke-width="1.5" stroke-linecap="round" stroke-linejoin="round"/>
<path d="M19.8198 15.4912C20.0849 15.4912 20.2998 15.2764 20.2998 15.0113C20.2998 14.7462 20.0849 14.5312 19.8198 14.5312C19.5547 14.5312 19.3398 14.7462 19.3398 15.0113C19.3398 15.2764 19.5547 15.4912 19.8198 15.4912Z" fill="#FFB66C" stroke="#FFB66C" stroke-width="1.5" stroke-linecap="round" stroke-linejoin="round"/>
</svg>
