<svg width="30" height="30" viewBox="0 0 30 30" fill="none" xmlns="http://www.w3.org/2000/svg">
<path d="M10 13.1712V24.0111H8.26999C7.00999 24.0111 6 22.9911 6 21.7411V15.8312C4.83 15.4312 4 14.3211 4 13.0111C4 11.3011 5.42 9.93115 7.16 10.0111C8.78 10.0911 10 11.5512 10 13.1712Z" stroke="#019CB0" stroke-width="1.5" stroke-linecap="round" stroke-linejoin="round"/>
<path d="M24.57 10.0604C25.75 10.2804 26.71 11.2304 26.94 12.4004C27.24 13.9604 26.34 15.3604 25 15.8204V21.7304C25 22.9904 23.98 24.0004 22.73 24.0004H21V13.0004C21 11.1504 22.66 9.70045 24.57 10.0505V10.0604Z" stroke="#019CB0" stroke-width="1.5" stroke-linecap="round" stroke-linejoin="round"/>
<path d="M10 18V19V24H21V19V18" stroke="#019CB0" stroke-width="1.5" stroke-linecap="round" stroke-linejoin="round"/>
<path d="M21 18.9987C17.45 17.7088 13.55 17.7088 10 18.9987" stroke="#019CB0" stroke-width="1.5" stroke-linecap="round" stroke-linejoin="round"/>
<path d="M7 10C7 7.79 8.79 6 11 6H20C22.21 6 24 7.79 24 10" stroke="#019CB0" stroke-width="1.5" stroke-linecap="round" stroke-linejoin="round"/>
</svg>
