<svg width="30" height="30" viewBox="0 0 30 30" fill="none" xmlns="http://www.w3.org/2000/svg">
<path d="M12 10.5098H18.66" stroke="#019CB0" stroke-width="1.5" stroke-linecap="round" stroke-linejoin="round"/>
<path d="M9 20.1089C12.7 21.3289 18.96 20.5289 20.91 17.1289" stroke="#FFB66C" stroke-width="1.5" stroke-linecap="round" stroke-linejoin="round"/>
<path d="M16.5105 8.21039C16.6651 8.21039 16.7905 8.08506 16.7905 7.93042C16.7905 7.77578 16.6651 7.65039 16.5105 7.65039C16.3558 7.65039 16.2305 7.77578 16.2305 7.93042C16.2305 8.08506 16.3558 8.21039 16.5105 8.21039Z" stroke="#FFB66C" stroke-width="1.5" stroke-linecap="round" stroke-linejoin="round"/>
<path d="M14.24 5.97998C15.0629 5.97998 15.73 5.31289 15.73 4.48999C15.73 3.66709 15.0629 3 14.24 3C13.4171 3 12.75 3.66709 12.75 4.48999C12.75 5.31289 13.4171 5.97998 14.24 5.97998Z" stroke="#FFB66C" stroke-width="1.5" stroke-linecap="round" stroke-linejoin="round"/>
<path d="M17.31 14.0995V10.5195H13.35V14.0995C10.83 14.9295 9 17.3096 9 20.1096C9 23.6096 11.83 26.4396 15.33 26.4396C18.83 26.4396 21.66 23.6096 21.66 20.1096C21.66 17.3096 19.84 14.9295 17.31 14.0995Z" stroke="#019CB0" stroke-width="1.5" stroke-linecap="round" stroke-linejoin="round"/>
</svg>
