<svg width="30" height="30" viewBox="0 0 30 30" fill="none" xmlns="http://www.w3.org/2000/svg">
<path d="M23.28 7.19922H11C7.93 7.19922 6 9.37922 6 12.4592V20.7692C6 23.8492 7.92 26.0292 11 26.0292H19.82C22.91 26.0292 24.82 23.8492 24.82 20.7692V16.7392" stroke="#019CB0" stroke-width="1.5" stroke-linecap="round" stroke-linejoin="round"/>
<path d="M12.2605 21.64V13.5L10.4805 15.28" stroke="#FFB66C" stroke-width="1.5" stroke-linecap="round" stroke-linejoin="round"/>
<path d="M21.3398 10.94L24.8298 7.47L21.3398 4" stroke="#019CB0" stroke-width="1.5" stroke-linecap="round" stroke-linejoin="round"/>
<path d="M20.3507 16.19C20.3507 14.7 19.1507 13.5 17.6607 13.5C16.1707 13.5 14.9707 14.7 14.9707 16.19V18.94C14.9707 20.43 16.1707 21.63 17.6607 21.63C19.1507 21.63 20.3507 20.43 20.3507 18.94V16.19Z" stroke="#FFB66C" stroke-width="1.5" stroke-linecap="round" stroke-linejoin="round"/>
</svg>
