<svg width="30" height="30" viewBox="0 0 30 30" fill="none" xmlns="http://www.w3.org/2000/svg">
<path d="M12.8496 6.53906L14.2396 11.889" stroke="#FFB66C" stroke-width="1.5" stroke-linejoin="round"/>
<path d="M16.2598 11.889L17.6498 6.53906" stroke="#FFB66C" stroke-width="1.5" stroke-linejoin="round"/>
<path d="M12.8496 23.7407L14.2396 18.3906" stroke="#FFB66C" stroke-width="1.5" stroke-linejoin="round"/>
<path d="M16.2598 18.3906L17.6498 23.7407" stroke="#FFB66C" stroke-width="1.5" stroke-linejoin="round"/>
<path d="M6.65039 17.5404L12.0004 16.1504" stroke="#FFB66C" stroke-width="1.5" stroke-linejoin="round"/>
<path d="M12.0004 14.1302L6.65039 12.7402" stroke="#FFB66C" stroke-width="1.5" stroke-linejoin="round"/>
<path d="M23.85 17.5404L18.5 16.1504" stroke="#FFB66C" stroke-width="1.5" stroke-linejoin="round"/>
<path d="M18.5 14.1302L23.85 12.7402" stroke="#FFB66C" stroke-width="1.5" stroke-linejoin="round"/>
<path d="M15.25 6C20.36 6 24.5 10.14 24.5 15.25C24.5 20.36 20.36 24.5 15.25 24.5C10.14 24.5 6 20.36 6 15.25C6 10.14 10.14 6 15.25 6Z" stroke="#019CB0" stroke-width="1.5" stroke-linecap="round" stroke-linejoin="round"/>
<path d="M15.2509 11.4609C17.3409 11.4609 19.0409 13.161 19.0409 15.251C19.0409 17.341 17.3409 19.041 15.2509 19.041C13.1609 19.041 11.4609 17.341 11.4609 15.251C11.4609 13.161 13.1609 11.4609 15.2509 11.4609Z" stroke="#019CB0" stroke-width="1.5" stroke-linecap="round" stroke-linejoin="round"/>
</svg>
