<svg width="30" height="30" viewBox="0 0 30 30" fill="none" xmlns="http://www.w3.org/2000/svg">
<path d="M14.07 24.0501C12.12 22.7801 10.41 21.1801 9.02 19.3201C7.78 17.7001 7.07 15.7301 7 13.6801V13.6501C7.01 9.41008 10.46 5.98009 14.7 6.00009C18.94 6.01009 22.37 9.46008 22.35 13.7001V13.7901C22.13 16.5701 20.89 19.1701 18.87 21.0901C18.19 21.7901 17.46 22.4501 16.69 23.0501" stroke="#019CB0" stroke-width="1.5" stroke-linecap="round" stroke-linejoin="round"/>
<path d="M14.6807 16.2696C16.0393 16.2696 17.1407 15.1682 17.1407 13.8096C17.1407 12.451 16.0393 11.3496 14.6807 11.3496C13.3221 11.3496 12.2207 12.451 12.2207 13.8096C12.2207 15.1682 13.3221 16.2696 14.6807 16.2696Z" stroke="#FFB66C" stroke-width="1.5" stroke-linecap="round" stroke-linejoin="round"/>
</svg>
