<svg width="30" height="30" viewBox="0 0 30 30" fill="none" xmlns="http://www.w3.org/2000/svg">
<path d="M9.6875 10.3551L10.3775 8.36512C11.2775 5.75512 14.1275 4.37513 16.7375 5.27513C18.0375 5.72513 19.0375 6.66514 19.6075 7.81514C20.1575 8.96514 20.2775 10.3351 19.8275 11.6351L18.7275 14.5751" stroke="#FFB66C" stroke-width="1.5" stroke-linecap="round" stroke-linejoin="round"/>
<path d="M14.627 21.4758V18.4258" stroke="#FFB66C" stroke-width="1.5" stroke-linecap="round" stroke-linejoin="round"/>
<path d="M13.0975 25.3447C11.2875 25.3447 10.5175 25.3447 10.5175 25.3447C8.71749 25.4847 7.1475 24.1447 7.0075 22.3447C6.9975 22.2147 6.9975 22.0747 7.0075 21.9447V17.9846C6.9275 16.1746 8.3275 14.6447 10.1375 14.5647C10.2675 14.5647 10.4075 14.5647 10.5375 14.5647H18.7475C20.5575 14.4247 22.1275 15.7747 22.2675 17.5847C22.2775 17.7147 22.2775 17.8447 22.2675 17.9747V21.9347C22.3475 23.7447 20.9375 25.2647 19.1375 25.3447C19.0775 25.3447 17.9375 25.3447 16.1075 25.3447" stroke="#019CB0" stroke-width="1.5" stroke-linecap="round" stroke-linejoin="round"/>
</svg>
