<svg width="30" height="30" viewBox="0 0 30 30" fill="none" xmlns="http://www.w3.org/2000/svg">
<path d="M10.0078 13.8V10.61C10.0078 8.06999 12.0678 6 14.6178 6C15.8878 6 17.0378 6.52001 17.8778 7.35001C18.7078 8.19001 19.2278 9.33999 19.2278 10.61V13.8" stroke="#FFB66C" stroke-width="1.5" stroke-linecap="round" stroke-linejoin="round"/>
<path d="M13.0975 24.579C11.2875 24.579 10.5175 24.579 10.5175 24.579C8.7175 24.719 7.1475 23.379 7.0075 21.579C6.9975 21.449 6.9975 21.309 7.0075 21.179V17.2191C6.9275 15.4091 8.3275 13.879 10.1375 13.799C10.2675 13.799 10.4075 13.799 10.5375 13.799H18.7475C20.5575 13.659 22.1275 15.0091 22.2675 16.8191C22.2775 16.9491 22.2775 17.079 22.2675 17.209V21.169C22.3475 22.979 20.9375 24.499 19.1375 24.579C19.0775 24.579 17.9375 24.579 16.1075 24.579" stroke="#019CB0" stroke-width="1.5" stroke-linecap="round" stroke-linejoin="round"/>
<path d="M14.627 20.7202V17.6602" stroke="#FFB66C" stroke-width="1.5" stroke-linecap="round" stroke-linejoin="round"/>
</svg>
