<svg width="30" height="30" viewBox="0 0 30 30" fill="none" xmlns="http://www.w3.org/2000/svg">
<path d="M6.48546 7.37138C6.80546 6.85138 8.54545 4.94138 9.78545 5.00138C10.1554 5.06138 10.4955 5.2414 10.7555 5.5214C11.7155 6.5314 12.5455 7.6514 13.2255 8.8614C13.4655 10.0314 12.0754 10.7014 12.4954 11.8814C13.4954 14.4614 15.5354 16.4914 18.1154 17.5014C19.2954 17.9314 19.9655 16.5314 21.1355 16.7814C22.3455 17.4614 23.4655 18.2914 24.4755 19.2514C24.7555 19.5014 24.9354 19.8414 24.9954 20.2214C25.0454 21.5314 23.0154 23.3014 22.6254 23.5214C21.6954 24.1914 20.4855 24.1714 19.0055 23.4914C14.8755 21.7714 8.27544 15.3014 6.52544 11.0214C5.85544 9.5514 5.80544 8.3214 6.49544 7.3914L6.48546 7.37138Z" stroke="#019CB0" stroke-width="1.5" stroke-linecap="round" stroke-linejoin="round"/>
<path d="M7.875 6.29102L9.345 8.47101" stroke="#FFB66C" stroke-width="1.5" stroke-linecap="round" stroke-linejoin="round"/>
<path d="M21.3555 20.5625L23.5455 22.2725" stroke="#FFB66C" stroke-width="1.5" stroke-linecap="round" stroke-linejoin="round"/>
</svg>
