<svg width="30" height="30" viewBox="0 0 30 30" fill="none" xmlns="http://www.w3.org/2000/svg">
<path d="M15.2598 24.1804C16.9498 24.1804 18.5198 23.7304 19.8898 22.9404C21.2598 22.1504 22.4597 20.9604 23.2797 19.5504C24.0997 18.1404 24.5198 16.6104 24.5198 14.9204C24.5198 13.2304 24.0697 11.6604 23.2797 10.2904C22.4897 8.92041 21.2998 7.72039 19.8898 6.90039" stroke="#FFB66C" stroke-width="1.5" stroke-linecap="round" stroke-linejoin="round"/>
<path d="M15.26 5.67969C13.57 5.67969 12 6.12968 10.63 6.91968C9.26 7.70968 8.05999 8.89969 7.23999 10.3097C6.41999 11.7197 6 13.2497 6 14.9397C6 16.6297 6.44999 18.1997 7.23999 19.5697C8.02999 20.9397 9.22 22.1397 10.63 22.9597" stroke="#019CB0" stroke-width="1.5" stroke-linecap="round" stroke-linejoin="round"/>
<path d="M12.5606 9.79001L15.2606 5.67999L11.1406 3" stroke="#019CB0" stroke-width="1.5" stroke-linecap="round" stroke-linejoin="round"/>
<path d="M17.8198 19.9805L15.2598 24.1805L19.4697 26.7205" stroke="#FFB66C" stroke-width="1.5" stroke-linecap="round" stroke-linejoin="round"/>
</svg>
