<svg width="30" height="30" viewBox="0 0 30 30" fill="none" xmlns="http://www.w3.org/2000/svg">
<path d="M21.0999 23.67C22.9699 23.67 24.4899 22.15 24.4899 20.28V17.58C23.2499 17.58 22.2499 16.58 22.2499 15.34C22.2499 14.1 23.2499 13.1 24.4899 13.1V10.4C24.4899 8.52999 22.9799 7.01 21.0999 7H9.38995C7.51995 7 6 8.51998 6 10.39V13.18C7.19 13.14 8.19999 14.07 8.23999 15.27C8.23999 15.29 8.23999 15.31 8.23999 15.34C8.23999 16.57 7.23995 17.58 6.00995 17.58V20.28C6.00995 22.15 7.52996 23.67 9.39996 23.67H21.1199H21.0999Z" stroke="#019CB0" stroke-width="1.5" stroke-linecap="round" stroke-linejoin="round"/>
<path d="M15.239 18.36L18.0091 19.82C18.1791 19.91 18.399 19.84 18.489 19.67C18.529 19.6 18.5391 19.52 18.5291 19.45L17.9991 16.36L20.239 14.18C20.379 14.04 20.379 13.82 20.239 13.68C20.189 13.62 20.1091 13.59 20.0391 13.58L16.9391 13.13L15.5491 10.32C15.4691 10.14 15.2491 10.07 15.0791 10.15C15.0091 10.18 14.9491 10.24 14.9091 10.32L13.5291 13.13L10.4291 13.58C10.2391 13.61 10.0991 13.79 10.1291 13.98C10.1391 14.06 10.179 14.13 10.229 14.18L12.4691 16.36L11.9391 19.45C11.9091 19.64 12.039 19.83 12.229 19.86C12.309 19.87 12.3791 19.86 12.4491 19.82L15.2191 18.36H15.239Z" stroke="#FFB66C" stroke-width="1.5" stroke-linecap="round" stroke-linejoin="round"/>
</svg>
