<svg width="30" height="30" viewBox="0 0 30 30" fill="none" xmlns="http://www.w3.org/2000/svg">
<path d="M7.08249 18.8605C6.82249 18.7105 6.6025 18.4905 6.4525 18.2205C6.2825 17.9205 6.1725 17.5805 6.1425 17.2405C5.9525 15.4405 5.9525 13.6305 6.1425 11.8305C6.2025 10.8505 7.0025 10.0805 7.9825 10.0505H10.0925L13.8025 7.01047C14.1525 6.71047 14.5825 6.53047 15.0325 6.48047C15.8325 6.50047 16.5125 7.07047 16.6825 7.84047C16.8025 8.33047 16.8925 8.82047 16.9425 9.32047" stroke="#019CB0" stroke-width="1.5" stroke-linecap="round" stroke-linejoin="round"/>
<path d="M17.0622 16.9004C17.0422 18.2404 16.9922 19.0504 16.9422 19.5204C16.9022 20.1204 16.8122 20.7104 16.6922 21.3004C16.5222 22.0804 15.8422 22.6404 15.0422 22.6604C14.6222 22.6304 14.2122 22.4604 13.8922 22.1804L12.4922 21.0404" stroke="#019CB0" stroke-width="1.5" stroke-linecap="round" stroke-linejoin="round"/>
<path d="M23.2027 6L6.05273 23.15" stroke="#FFB66C" stroke-width="1.5" stroke-linecap="round" stroke-linejoin="round"/>
</svg>
